<?xml version="1.0" encoding="UTF-8" standalone="no"?>
<svg
   xmlns:dc="http://purl.org/dc/elements/1.1/"
   xmlns:cc="http://creativecommons.org/ns#"
   xmlns:rdf="http://www.w3.org/1999/02/22-rdf-syntax-ns#"
   xmlns:svg="http://www.w3.org/2000/svg"
   xmlns="http://www.w3.org/2000/svg"
   xmlns:sodipodi="http://sodipodi.sourceforge.net/DTD/sodipodi-0.dtd"
   xmlns:inkscape="http://www.inkscape.org/namespaces/inkscape"
   version="1.1"
   width="512"
   height="512"
   x="0"
   y="0"
   viewBox="0 0 490.8 490.8"
   style="enable-background:new 0 0 512 512"
   xml:space="preserve"
   class=""
   id="svg38"
   sodipodi:docname="left-arrow.svg"
   inkscape:version="0.92.4 (5da689c313, 2019-01-14)"><metadata
     id="metadata44"><rdf:RDF><cc:Work
         rdf:about=""><dc:format>image/svg+xml</dc:format><dc:type
           rdf:resource="http://purl.org/dc/dcmitype/StillImage" /><dc:title></dc:title></cc:Work></rdf:RDF></metadata><defs
     id="defs42" /><sodipodi:namedview
     pagecolor="#ffffff"
     bordercolor="#666666"
     borderopacity="1"
     objecttolerance="10"
     gridtolerance="10"
     guidetolerance="10"
     inkscape:pageopacity="0"
     inkscape:pageshadow="2"
     inkscape:window-width="1920"
     inkscape:window-height="1017"
     id="namedview40"
     showgrid="false"
     inkscape:zoom="0.4609375"
     inkscape:cx="256"
     inkscape:cy="256"
     inkscape:window-x="-8"
     inkscape:window-y="-8"
     inkscape:window-maximized="1"
     inkscape:current-layer="svg38" /><g
     id="g36"
     transform="matrix(-1,0,0,1,490.80001,0)">
<path
   style="fill:#01004a"
   d="m 135.685,3.128 c -4.237,-4.093 -10.99,-3.975 -15.083,0.262 -3.992,4.134 -3.992,10.687 0,14.82 L 347.717,245.346 120.581,472.461 c -4.237,4.093 -4.354,10.845 -0.262,15.083 4.093,4.237 10.845,4.354 15.083,0.262 0.089,-0.086 0.176,-0.173 0.262,-0.262 L 370.331,252.877 c 4.164,-4.165 4.164,-10.917 0,-15.083 z"
   data-original="#f44336"
   id="path2"
   inkscape:connector-curvature="0" />
<path
   d="m 128.133,490.68 c -5.891,0.011 -10.675,-4.757 -10.686,-10.648 -0.005,-2.84 1.123,-5.565 3.134,-7.571 L 347.717,245.346 120.581,18.232 c -4.171,-4.171 -4.171,-10.933 0,-15.104 4.171,-4.171 10.933,-4.171 15.104,0 l 234.667,234.667 c 4.164,4.165 4.164,10.917 0,15.083 L 135.685,487.544 c -2,2.007 -4.718,3.136 -7.552,3.136 z"
   data-original="#000000"
   style="fill:#01004a"
   class=""
   id="path4"
   inkscape:connector-curvature="0" />
<g
   id="g6">
</g>
<g
   id="g8">
</g>
<g
   id="g10">
</g>
<g
   id="g12">
</g>
<g
   id="g14">
</g>
<g
   id="g16">
</g>
<g
   id="g18">
</g>
<g
   id="g20">
</g>
<g
   id="g22">
</g>
<g
   id="g24">
</g>
<g
   id="g26">
</g>
<g
   id="g28">
</g>
<g
   id="g30">
</g>
<g
   id="g32">
</g>
<g
   id="g34">
</g>
</g></svg>