<?xml version="1.0" encoding="UTF-8" standalone="no"?>
<!-- Created with Inkscape (http://www.inkscape.org/) -->

<svg
   xmlns:dc="http://purl.org/dc/elements/1.1/"
   xmlns:cc="http://creativecommons.org/ns#"
   xmlns:rdf="http://www.w3.org/1999/02/22-rdf-syntax-ns#"
   xmlns:svg="http://www.w3.org/2000/svg"
   xmlns="http://www.w3.org/2000/svg"
   xmlns:sodipodi="http://sodipodi.sourceforge.net/DTD/sodipodi-0.dtd"
   xmlns:inkscape="http://www.inkscape.org/namespaces/inkscape"
   width="512mm"
   height="512mm"
   viewBox="0 0 512 512"
   version="1.1"
   id="svg847"
   inkscape:version="0.92.4 (5da689c313, 2019-01-14)"
   sodipodi:docname="vektor-logo-white.svg">
  <defs
     id="defs841" />
  <sodipodi:namedview
     id="base"
     pagecolor="#ffffff"
     bordercolor="#666666"
     borderopacity="1.0"
     inkscape:pageopacity="0.0"
     inkscape:pageshadow="2"
     inkscape:zoom="0.35"
     inkscape:cx="675.85051"
     inkscape:cy="1017.1429"
     inkscape:document-units="mm"
     inkscape:current-layer="layer1"
     showgrid="false"
     inkscape:window-width="1920"
     inkscape:window-height="1017"
     inkscape:window-x="-8"
     inkscape:window-y="-8"
     inkscape:window-maximized="1" />
  <metadata
     id="metadata844">
    <rdf:RDF>
      <cc:Work
         rdf:about="">
        <dc:format>image/svg+xml</dc:format>
        <dc:type
           rdf:resource="http://purl.org/dc/dcmitype/StillImage" />
        <dc:title></dc:title>
      </cc:Work>
    </rdf:RDF>
  </metadata>
  <g
     inkscape:label="Ebene 1"
     inkscape:groupmode="layer"
     id="layer1"
     transform="translate(0,215)">
    <path
       style="fill:#ffffff;stroke-width:1.12512076;fill-opacity:1"
       d="m 237.84197,263.89627 c -3.54435,-3.43872 -9.10603,-9.43276 -12.35928,-13.32002 -3.25324,-3.88729 -7.21178,-8.5357 -8.79671,-10.32982 -2.45691,-2.78122 -18.5292,-25.22616 -23.84091,-33.29381 -4.56624,-6.93545 -15.31793,-29.83836 -18.07735,-38.50783 -1.77955,-5.59092 -3.38305,-13.83497 -3.75917,-19.32705 -0.36081,-5.26757 -1.0816,-9.17977 -1.60187,-8.6938 -1.04103,0.97226 -4.61164,18.9208 -3.95998,19.9056 0.22351,0.33782 0.5083,4.02255 0.63304,8.18856 0.1245,4.16606 0.64365,8.79787 1.15315,10.29301 0.50953,1.4951 1.84229,6.63284 2.96169,11.41716 1.11938,4.78435 4.10206,13.10258 6.62815,18.48498 7.24671,15.44073 13.57279,30.00414 14.72233,33.89267 l 1.05571,3.57113 -4.26457,-1.66326 c -5.78028,-2.25441 -12.75081,-6.17692 -17.57489,-9.88997 -18.5681,-14.29159 -18.28006,-13.98344 -25.00408,-26.75282 -7.98282,-15.15991 -10.03739,-20.69437 -14.59887,-39.32499 -5.45904,-22.29665 -7.25575,-38.01751 -5.782,-50.59249 2.43961,-20.816964 8.11112,-39.514697 16.58386,-54.673427 2.25629,-4.036807 3.84474,-7.339628 3.52996,-7.339628 -2.10252,0 -5.38309,2.843154 -7.25257,6.285538 -1.20797,2.22436 -6.61864,11.388805 -12.02369,20.365397 -11.29876,18.76476 -15.05999,28.21545 -26.00503,65.34087 -4.213482,14.29216 -8.142672,26.43936 -8.731498,26.99376 -2.583277,2.43227 -9.620724,-21.21499 -11.736926,-39.43843 -1.044065,-8.99073 -1.043449,-16.7165 0.0023,-32.87359 1.754115,-27.095766 5.044098,-42.723574 11.771423,-55.916032 1.219894,-2.392158 4.621069,-9.225145 7.558161,-15.184416 2.93714,-5.959271 5.76735,-11.097019 6.28943,-11.417202 0.52207,-0.320144 3.57027,-4.544558 6.77379,-9.387507 7.2746,-10.99760419 13.61583,-18.7009384 22.28928,-27.077189 7.49102,-7.234338 11.34488,-11.731017 8.31736,-9.704703 -0.96045,0.642835 -4.10378,1.799954 -6.98522,2.571381 -20.25435,5.422506 -44.159462,22.60841497 -60.867355,43.758829 -1.740122,2.202784 -3.163787,4.316471 -3.163787,4.697191 0,0.380555 -1.592057,2.853345 -3.53793,5.494878 -11.096706,15.063796 -18.746345,44.406566 -16.309285,62.559562 0.670978,4.997854 1.190853,10.567778 1.155256,12.377588 l -0.06469,3.29058 -2.462888,-2.95494 C 45.294519,99.468796 35.812443,74.995616 32.683374,59.720953 28.407495,38.848217 29.51787,9.8881522 35.20474,-6.0385117 38.623295,-15.612608 47.317262,-32.169121 51.74006,-37.527845 c 1.707649,-2.069055 3.366808,-4.36443 3.686963,-5.100843 1.035264,-2.38139 20.148404,-20.092432 28.078552,-26.018826 9.832635,-7.34817 25.512125,-16.802109 33.677075,-20.305601 25.8068,-11.073305 33.34389,-14.181865 43.6047,-17.983965 6.40312,-2.37268 18.19069,-6.15111 26.19459,-8.3966 18.60263,-5.21886 19.28143,-5.57608 12.42242,-6.53676 -7.00735,-0.98143 -40.31714,2.11299 -52.66644,4.8926 -21.78415,4.9033 -42.59161,13.04493 -56.008728,21.915326 -15.726486,10.397179 -38.60874,32.707936 -41.992446,40.943636 -1.123706,2.735069 -9.126941,13.732839 -11.114879,15.2738 -4.462223,3.458865 2.846889,-14.275437 14.039915,-34.065481 4.554625,-8.052902 13.6362,-19.870672 20.627623,-26.842605 1.610978,-1.606476 2.952009,-3.319056 2.980081,-3.805716 0.09592,-1.66648 20.312882,-17.65619 30.218254,-23.90002 8.18298,-5.15809 11.39525,-6.90235 23.86612,-12.9591 14.92347,-7.2479 24.69644,-10.82994 41.32921,-15.14805 10.62783,-2.75915 70.20218,-5.08412 72.82091,-2.84196 0.60828,0.52086 2.53273,1.26085 4.27654,1.64449 2.44252,0.53734 3.02581,0.34522 2.54025,-0.83665 -0.34674,-0.84376 -2.29732,-1.79815 -4.33475,-2.1208 -2.03745,-0.32261 -7.3717,-1.31912 -11.85388,-2.21433 -23.68247,-4.72999 -50.15084,-2.55859 -79.29251,6.505 -5.05281,1.57149 -10.49666,3.4714 -12.09742,4.22194 -1.60078,0.7506 -6.28714,2.77214 -10.41412,4.49233 -4.12698,1.72022 -9.10397,4.11087 -11.05992,5.31252 -1.95599,1.20167 -4.97638,2.77268 -6.71201,3.49109 -3.11935,1.29113 -3.14087,1.27219 -1.86672,-1.64119 1.39753,-3.19556 14.6789,-15.54037 19.86601,-18.46505 1.76084,-0.99286 3.20154,-2.18897 3.20154,-2.65809 0,-0.46909 0.59577,-0.85292 1.32391,-0.85292 0.72814,0 4.78831,-2.12088 9.02257,-4.71306 4.23425,-2.59218 8.74647,-4.99986 10.02708,-5.35042 1.28061,-0.35055 6.25761,-2.18005 11.05992,-4.06558 23.24535,-9.12684 51.32272,-12.34492 87.59964,-10.04017 36.9396,2.34686 64.88821,10.13966 96.05065,26.78154 7.69003,4.10675 15.18835,12.98746 16.05852,19.01911 1.40593,9.7449 2.67696,11.89878 9.38774,15.90821 3.4794,2.07884 6.83996,3.77971 7.46782,3.77971 0.62789,0 1.14161,0.41454 1.14161,0.92122 0,0.50668 3.27433,2.5207 7.27625,4.47568 4.00196,1.95493 7.53823,3.86736 7.85839,4.24985 0.32032,0.38261 3.46352,2.72862 6.9852,5.21358 12.65036,8.926328 14.07469,11.033232 15.70666,23.234066 0.62824,4.696494 1.13369,5.263416 10.66359,11.960828 14.53023,10.211549 33.68878,29.354195 39.26172,39.229078 3.8906,6.893935 4.51129,8.960524 4.51129,15.020646 0,6.3004145 -0.32781,7.29027 -3.17009,9.573727 -5.53691,4.4482689 -11.64962,0.7608656 -17.08885,-10.308536 -1.91652,-3.900284 -4.07849,-6.795917 -5.0741,-6.795917 -0.95408,0 -1.73472,0.429542 -1.73472,0.954553 0,2.398363 4.06212,9.591686 8.8742,15.7148924 4.80587,6.11531462 5.2146,7.11893684 4.6216,11.3485703 -0.74174,5.2905454 -4.11228,11.6112493 -8.83895,16.5755693 -13.25925,13.925746 -20.39772,18.440713 -31.74801,20.080144 -6.14421,0.887443 -10.61753,0.894018 -16.56642,0.02466 -12.46754,-1.822599 -15.16776,-3.773624 -19.21035,-13.879964 -1.8829,-4.707259 -3.40888,-6.703286 -6.12907,-8.017108 -10.35423,-5.000894 -28.79605,2.406624 -28.79605,11.566467 0,4.545338 4.2314,8.593324 13.16025,12.589897 12.07498,5.404753 27.80816,8.499089 39.69284,7.806569 l 9.63722,-0.561546 -1.5606,6.309333 c -2.25067,9.099019 -10.49278,30.112512 -13.20789,33.673829 -1.27481,1.672185 -2.3179,3.576401 -2.3179,4.231647 0,0.655246 -0.39293,1.196161 -0.87312,1.20208 -0.48023,0.0041 -4.54042,4.205385 -9.02257,9.332195 -4.4822,5.12686 -10.05339,11.44733 -12.38045,14.04555 l -4.231,4.72402 -1.2235,-6.17297 c -0.67291,-3.39512 -1.57261,-8.29208 -1.99928,-10.88216 -0.98168,-5.9587 -5.43541,-10.777123 -15.68618,-16.970604 -7.92079,-4.785632 -12.83921,-9.681195 -14.95946,-14.889753 -0.63855,-1.568661 -1.9882,-10.618693 -2.99923,-20.111172 -1.01105,-9.49252 -2.37743,-19.075987 -3.03649,-21.296567 -1.57801,-5.317176 -10.6427,-14.530443 -15.88634,-16.146777 -5.38616,-1.660226 -13.79948,-0.725521 -17.6658,1.962615 -6.14101,4.269702 -5.92509,6.139028 2.75092,23.815178 4.36076,8.884412 12.23528,24.960997 17.499,35.725749 5.2637,10.764791 11.52941,23.486771 13.92388,28.271131 8.45455,16.89317 10.12863,22.1217 10.18869,31.82164 0.0506,8.1831 -0.31856,9.6913 -4.12481,16.85397 -5.91956,11.1391 -18.63908,29.332 -34.9539,49.99506 -10.24353,12.97358 -9.70697,12.32955 -16.50175,19.80825 -3.20154,3.5238 -6.86879,7.7538 -8.1494,9.39993 -9.51896,12.23602 -30.22231,34.68008 -31.99032,34.68008 -1.15258,0 -4.99548,-2.81352 -8.53984,-6.25229 z M 401.78696,-54.955237 c -0.39074,-0.590313 -3.17198,-2.637547 -6.18079,-4.549449 -3.00882,-1.911901 -5.82912,-3.974751 -6.26738,-4.584133 -0.97881,-1.360959 0.11972,-7.232119 1.70553,-9.116362 0.92562,-1.099753 -1.12863,-1.344522 -10.05936,-1.198591 -13.51608,0.220699 -13.45791,0.397406 3.11054,9.436017 6.52365,3.558853 13.17084,7.492795 14.77161,8.742053 3.25593,2.540969 3.96456,2.849318 2.91985,1.270465 z M 280.89274,-80.25019 c -5.83955,-7.274528 -7.75955,-12.295881 -7.75955,-20.29335 0,-13.64264 3.23719,-16.60624 18.09688,-16.56757 5.34709,0.0118 10.76279,0.54556 12.03486,1.18141 4.44845,2.22358 4.04764,1.12781 -0.8072,-2.20677 -10.3878,-7.13501 -22.65174,-7.55407 -29.86888,-1.02067 -5.92215,5.36102 -6.86289,9.88897 -3.95494,19.03541 2.9697,9.340629 4.82978,12.817215 10.05027,18.784213 4.75075,5.430016 6.31138,6.198406 2.20856,1.087327 z m 4.09472,-24.43244 c 1.58942,-1.78866 11.62336,-1.81271 13.76025,-0.0329 1.38164,1.15071 1.40312,1.07583 0.13948,-0.48806 -2.27733,-2.81915 -8.53582,-4.4059 -12.21909,-3.09799 -4.04223,1.43541 -5.54176,5.36171 -4.48858,11.752998 l 0.84918,5.153073 0.36081,-5.947479 c 0.19845,-3.271092 0.91743,-6.573912 1.59778,-7.339622 z"
       id="path830"
       inkscape:connector-curvature="0" />
  </g>
</svg>
