<?xml version="1.0" standalone="no"?>
<!DOCTYPE svg PUBLIC "-//W3C//DTD SVG 20010904//EN"
 "http://www.w3.org/TR/2001/REC-SVG-20010904/DTD/svg10.dtd">
<svg version="1.0" xmlns="http://www.w3.org/2000/svg"
 width="462.000000pt" height="462.000000pt" viewBox="0 0 462.000000 462.000000"
 preserveAspectRatio="xMidYMid meet">
<metadata>
Created by potrace 1.11, written by Peter Selinger 2001-2013
</metadata>
<g transform="translate(0.000000,462.000000) scale(0.100000,-0.100000)"
fill="#000000" stroke="none">
<path d="M1935 4380 c-105 -9 -248 -45 -355 -90 -41 -17 -84 -34 -95 -37 -11
-4 -50 -26 -86 -50 -36 -23 -71 -43 -78 -43 -6 0 -11 -4 -11 -8 0 -4 -12 -15
-27 -24 -45 -27 -159 -141 -171 -170 -11 -27 -11 -27 16 -15 15 7 50 26 77 42
28 17 71 39 95 49 25 10 63 27 85 37 59 26 190 66 270 83 193 40 345 43 500
10 39 -9 84 -18 102 -21 17 -3 34 -11 37 -19 7 -18 4 -17 -41 1 -41 17 -190
19 -433 5 -210 -12 -344 -51 -565 -163 -102 -53 -114 -59 -200 -117 -89 -60
-264 -207 -265 -223 0 -5 -11 -20 -25 -35 -60 -64 -138 -173 -177 -247 -96
-182 -159 -345 -121 -313 17 14 86 115 96 140 13 36 117 166 174 218 117 108
140 127 199 167 200 136 441 207 805 239 68 5 167 -2 157 -12 -2 -2 -71 -24
-153 -50 -183 -56 -333 -117 -585 -236 -195 -93 -458 -310 -565 -466 -51 -75
-119 -213 -149 -302 -47 -141 -58 -406 -26 -585 27 -146 120 -408 161 -450 19
-19 19 -19 19 10 0 17 -5 69 -10 117 -20 171 44 434 140 572 16 25 30 48 30
53 0 4 11 20 25 35 14 15 25 31 25 36 0 5 10 18 22 29 13 11 43 44 67 72 89
107 283 235 411 272 25 7 52 17 60 23 28 21 -29 -49 -82 -101 -29 -29 -61 -63
-70 -75 -10 -13 -27 -35 -37 -49 -11 -14 -44 -64 -72 -110 -29 -46 -56 -86
-60 -89 -5 -3 -29 -51 -54 -105 -25 -55 -53 -113 -61 -130 -29 -55 -73 -213
-88 -317 -22 -155 -31 -416 -17 -528 20 -159 80 -365 101 -344 5 5 34 101 65
214 96 352 137 463 232 633 47 84 94 169 104 189 16 32 45 58 63 58 2 0 -11
-30 -31 -68 -73 -139 -121 -311 -142 -503 -13 -113 1 -253 44 -445 40 -175 71
-266 132 -387 57 -111 57 -111 214 -240 41 -35 101 -71 151 -91 l37 -16 -13
43 c-21 65 -62 170 -94 239 -37 77 -61 137 -67 163 -3 11 -14 56 -25 100 -11
44 -23 116 -26 159 -3 44 -7 82 -9 85 -6 11 24 164 35 175 7 7 10 -9 10 -50 0
-114 55 -290 145 -464 24 -47 52 -101 62 -120 10 -19 21 -37 24 -40 3 -3 36
-50 72 -105 37 -55 75 -109 85 -120 10 -11 38 -47 63 -80 81 -110 173 -205
199 -205 17 0 77 68 215 244 39 48 87 109 109 135 83 99 98 119 164 209 92
126 123 171 196 284 190 293 189 339 -10 755 -29 61 -64 137 -78 170 -13 32
-47 105 -74 163 -129 277 -126 269 -116 297 20 57 112 88 187 64 46 -16 123
-101 137 -151 6 -22 17 -109 25 -194 9 -86 20 -168 26 -183 19 -50 60 -94 129
-139 88 -57 126 -101 135 -156 3 -24 11 -69 17 -100 l10 -57 37 44 c20 24 68
82 106 129 39 47 73 86 78 86 4 0 7 5 7 11 0 6 9 23 20 39 23 33 94 226 113
309 l14 58 -87 -5 c-72 -4 -104 0 -190 22 -116 30 -214 77 -244 118 -49 67 26
155 141 165 85 8 114 -10 142 -85 28 -75 62 -108 126 -122 59 -13 164 -14 219
-1 64 16 142 75 236 181 41 46 79 126 80 165 0 21 -15 51 -45 92 -40 56 -75
122 -75 144 0 5 7 9 15 9 8 0 27 -27 43 -63 35 -76 83 -121 121 -112 33 8 51
31 53 69 7 131 -35 209 -207 382 -71 71 -158 150 -192 173 -61 43 -62 44 -68
100 -11 100 -25 122 -135 204 -30 23 -57 45 -60 48 -3 4 -33 21 -67 39 -35 18
-63 37 -63 42 0 4 -4 8 -10 8 -5 0 -34 16 -64 35 -58 37 -69 56 -81 146 -7 56
-75 141 -139 177 -267 147 -500 220 -768 242 -128 11 -320 11 -453 0z m712
-574 c29 -8 72 -29 95 -46 24 -18 34 -29 23 -25 -62 24 -179 25 -223 3 -37
-19 -52 -60 -52 -138 0 -74 15 -116 67 -190 23 -33 22 -33 -12 5 -47 52 -70
97 -94 183 -16 57 -17 78 -9 106 18 59 73 101 148 115 3 0 29 -6 57 -13z m18
-136 c7 0 21 -8 32 -17 10 -10 14 -15 9 -10 -16 12 -101 8 -114 -5 -7 -7 -13
-37 -13 -67 l-1 -56 -9 47 c-6 29 -5 56 1 72 10 28 45 48 68 40 8 -2 20 -4 27
-4z m838 -322 c-14 -18 -23 -72 -15 -84 4 -6 28 -25 54 -42 26 -18 50 -37 54
-43 3 -6 -16 5 -42 24 -27 19 -86 55 -131 81 -121 69 -121 73 -7 75 77 1 95
-1 87 -11z"/>
</g>
</svg>
