<?xml version="1.0" encoding="UTF-8" standalone="no"?>
<!-- Generator: Adobe Illustrator 16.0.0, SVG Export Plug-In . SVG Version: 6.00 Build 0)  -->

<svg
   xmlns:dc="http://purl.org/dc/elements/1.1/"
   xmlns:cc="http://creativecommons.org/ns#"
   xmlns:rdf="http://www.w3.org/1999/02/22-rdf-syntax-ns#"
   xmlns:svg="http://www.w3.org/2000/svg"
   xmlns="http://www.w3.org/2000/svg"
   xmlns:sodipodi="http://sodipodi.sourceforge.net/DTD/sodipodi-0.dtd"
   xmlns:inkscape="http://www.inkscape.org/namespaces/inkscape"
   version="1.1"
   id="Capa_1"
   x="0px"
   y="0px"
   width="800px"
   height="800px"
   viewBox="0 0 800 800"
   enable-background="new 0 0 800 800"
   xml:space="preserve"
   sodipodi:docname="serbia.svg"
   inkscape:version="0.92.4 (5da689c313, 2019-01-14)"><metadata
   id="metadata53"><rdf:RDF><cc:Work
       rdf:about=""><dc:format>image/svg+xml</dc:format><dc:type
         rdf:resource="http://purl.org/dc/dcmitype/StillImage" /></cc:Work></rdf:RDF></metadata><defs
   id="defs51" /><sodipodi:namedview
   pagecolor="#ffffff"
   bordercolor="#666666"
   borderopacity="1"
   objecttolerance="10"
   gridtolerance="10"
   guidetolerance="10"
   inkscape:pageopacity="0"
   inkscape:pageshadow="2"
   inkscape:window-width="1920"
   inkscape:window-height="1017"
   id="namedview49"
   showgrid="false"
   inkscape:zoom="0.295"
   inkscape:cx="400"
   inkscape:cy="400"
   inkscape:window-x="-8"
   inkscape:window-y="-8"
   inkscape:window-maximized="1"
   inkscape:current-layer="Capa_1" />
<g
   id="g46"
   transform="matrix(0.80932179,0,0,0.85613412,77.966102,45.681947)">
	<rect
   x="24.806999"
   y="325.88199"
   width="121.568"
   height="148.23599"
   id="rect2"
   style="fill:#103b9b" />
	<rect
   x="25.806999"
   y="326.88199"
   width="119.568"
   height="146.23599"
   id="rect4"
   style="fill:#103b9b" />
	<path
   d="M 412.766,474.118 V 325.882 h 219.492 c 6.563,0 11.903,-5.34 11.903,-11.903 v -1 h 27.807 v 1 c 0,6.563 5.34,11.903 11.903,11.903 h 91.322 v 148.236 z"
   id="path6"
   inkscape:connector-curvature="0"
   style="fill:#103b9b" />
	<path
   d="M 632.258,326.882 H 413.766 V 473.118 H 774.194 V 326.882 h -90.322 c -7.128,0 -12.903,-5.777 -12.903,-12.903 h -25.807 c -0.001,7.125 -5.776,12.903 -12.904,12.903 z"
   id="path8"
   inkscape:connector-curvature="0"
   style="fill:#103b9b" />
	<path
   d="m 291.468,245.371 0.002,-19.292 1.17,0.203 c 18.787,3.25 35.605,13.326 47.357,28.37 l 0.694,0.889 -16.192,9.78 z"
   id="path10"
   inkscape:connector-curvature="0"
   style="fill:#ed1f34" />
	<path
   d="m 292.47,227.267 -0.002,17.54 32.031,19.345 14.71,-8.884 C 327.63,240.444 310.966,230.467 292.47,227.267 Z"
   id="path12"
   inkscape:connector-curvature="0"
   style="fill:#ed1f34" />
	<path
   d="m 218.448,255.542 0.694,-0.889 c 11.747,-15.041 28.563,-25.117 47.351,-28.371 l 1.171,-0.203 -10e-4,19.292 -33.026,19.949 z"
   id="path14"
   inkscape:connector-curvature="0"
   style="fill:#ed1f34" />
	<path
   d="m 219.93,255.269 14.706,8.883 32.026,-19.345 0.001,-17.54 c -18.495,3.204 -35.157,13.179 -46.733,28.002 z"
   id="path16"
   inkscape:connector-curvature="0"
   style="fill:#ed1f34" />
	<path
   d="m 644.161,314.979 v -1 c 0,-6.563 -5.34,-11.903 -11.903,-11.903 H 367.893 l 13.011,-46.799 c 1.313,-4.729 -0.363,-9.701 -4.271,-12.668 -2.085,-1.584 -4.574,-2.421 -7.195,-2.421 -2.169,0 -4.298,0.592 -6.156,1.714 l -2.097,1.265 -0.541,-0.737 C 344.43,220.304 319.536,205.617 292.347,202.138 l -0.873,-0.112 v -6.594 c 0,-3.18 -1.237,-6.169 -3.485,-8.418 -2.248,-2.249 -5.237,-3.487 -8.416,-3.487 -6.564,0 -11.905,5.339 -11.905,11.902 v 6.597 l -0.873,0.112 c -27.19,3.481 -52.084,18.167 -68.297,40.292 l -0.541,0.737 -2.097,-1.265 c -1.856,-1.122 -3.984,-1.715 -6.152,-1.715 -2.584,0 -5.141,0.86 -7.199,2.422 -3.909,2.966 -5.585,7.939 -4.271,12.668 l 13.01,46.799 H 24.807 V 153.839 h 750.387 v 148.236 h -91.322 c -6.563,0 -11.903,5.34 -11.903,11.903 v 1 h -27.808 z"
   id="path18"
   inkscape:connector-curvature="0"
   style="fill:#ed1f34" />
	<path
   d="m 158.278,301.075 h 31.652 l -12.657,-45.531 c -1.416,-5.094 0.42,-10.538 4.63,-13.732 4.211,-3.196 9.948,-3.501 14.472,-0.767 l 1.314,0.793 c 16.446,-22.441 41.394,-37.161 68.977,-40.693 v -5.717 c 0,-7.126 5.777,-12.902 12.903,-12.902 0,0 0,0 0.002,0 7.126,0 12.903,5.779 12.901,12.905 v 5.713 c 27.582,3.53 52.532,18.252 68.977,40.693 l 1.314,-0.793 c 4.528,-2.732 10.265,-2.429 14.473,0.767 4.211,3.197 6.045,8.638 4.63,13.732 l -12.658,45.531 h 31.653 231.396 c 7.128,0 12.903,5.777 12.903,12.903 h 25.807 c 0,-7.126 5.775,-12.903 12.903,-12.903 h 90.322 V 154.839 H 25.807 v 146.236 z"
   id="path20"
   inkscape:connector-curvature="0"
   style="fill:#ed1f34" />
	<path
   d="m 412.822,498.925 c -7.778,66.647 -64.552,118.55 -133.252,118.55 -68.7,0 -125.474,-51.902 -133.254,-118.55 H 25.807 V 645.161 H 774.194 V 498.925 Z"
   id="path22"
   inkscape:connector-curvature="0"
   style="fill:#ffffff" />
	<path
   d="M 787.097,129.032 H 12.903 C 5.777,129.032 0,134.81 0,141.936 v 516.129 c 0,7.126 5.777,12.903 12.903,12.903 h 774.193 c 7.128,0 12.903,-5.777 12.903,-12.903 V 141.936 C 800,134.81 794.225,129.032 787.097,129.032 Z m -12.904,25.807 v 146.236 h -90.322 c -7.128,0 -12.903,5.777 -12.903,12.903 0,7.126 5.775,12.903 12.903,12.903 h 90.322 V 473.117 H 413.766 V 326.882 h 218.492 c 7.128,0 12.903,-5.777 12.903,-12.903 0,-7.126 -5.775,-12.903 -12.903,-12.903 H 400.862 369.21 l 12.657,-45.531 c 1.415,-5.094 -0.42,-10.538 -4.63,-13.732 -4.208,-3.196 -9.944,-3.501 -14.473,-0.767 l -1.314,0.793 -22.24,13.432 -14.709,8.884 -32.031,-19.345 -6.233,-3.764 c -4.103,-2.478 -9.24,-2.476 -13.342,0 l -6.231,3.764 -32.026,19.345 -14.706,-8.883 -22.24,-13.433 -1.314,-0.793 c -4.525,-2.734 -10.261,-2.429 -14.473,0.767 -4.211,3.197 -6.047,8.639 -4.629,13.732 l 12.655,45.531 H 158.279 25.807 V 154.839 Z M 279.57,591.668 c -59.766,0 -108.389,-48.623 -108.389,-108.389 V 326.882 h 35.73 145.321 35.729 v 156.396 c -0.002,59.767 -48.625,108.39 -108.391,108.39 z m -68.735,-311.742 17.128,10.347 c 4.102,2.478 9.24,2.478 13.342,0 l 38.257,-23.108 38.264,23.108 c 4.104,2.478 9.238,2.478 13.342,0 l 17.134,-10.348 -5.879,21.151 H 216.716 Z m -65.46,193.192 H 25.807 V 326.882 H 145.375 Z M 25.807,645.161 V 498.925 h 120.509 c 7.778,66.647 64.552,118.55 133.254,118.55 68.702,0 125.474,-51.902 133.252,-118.55 h 361.371 v 146.236 z"
   id="path24"
   inkscape:connector-curvature="0" />
	<path
   d="m 292.473,201.144 v -5.713 c 0,-7.126 -5.775,-12.903 -12.901,-12.905 v 0 c -7.126,0 -12.903,5.776 -12.903,12.902 v 5.717 c -27.582,3.53 -52.532,18.252 -68.977,40.693 l 22.24,13.433 c 11.577,-14.823 28.239,-24.8 46.734,-28.002 l -0.002,17.54 6.231,-3.764 c 4.102,-2.476 9.239,-2.478 13.342,0 l 6.233,3.764 10e-4,-17.54 c 18.497,3.2 35.161,13.177 46.739,28.002 l 22.24,-13.432 c -16.445,-22.443 -41.395,-37.165 -68.977,-40.695 z"
   id="path26"
   inkscape:connector-curvature="0"
   style="fill:#ffe000" />
	<path
   d="m 279.57,592.666 c -60.317,0 -109.389,-49.071 -109.389,-109.389 V 325.882 h 218.778 v 157.396 c 0,60.317 -49.072,109.388 -109.389,109.388 z M 253.047,485.703 c 4.224,3.492 8.911,6.103 13.933,7.76 l 0.687,0.227 v 59.271 c 0,6.563 5.34,11.903 11.903,11.903 6.563,0 11.903,-5.34 11.903,-11.903 V 493.69 l 0.687,-0.227 c 5.021,-1.657 9.709,-4.268 13.934,-7.76 l 0.521,-0.432 36.938,20.125 c 1.741,0.948 3.71,1.45 5.694,1.45 2.137,0 4.24,-0.577 6.08,-1.67 3.592,-2.133 5.824,-6.054 5.824,-10.233 v -73.638 c 0,-18.996 -15.455,-34.451 -34.451,-34.451 -8.931,0 -17.414,3.438 -23.886,9.681 l -1.639,-1.049 6.271,-17.989 h 5.724 c 6.563,0 11.903,-5.34 11.903,-11.903 0,-6.563 -5.34,-11.903 -11.903,-11.903 h -14.18 c -5.059,0 -9.576,3.209 -11.24,7.985 l -8.181,23.468 -8.18,-23.468 c -1.665,-4.776 -6.182,-7.985 -11.24,-7.985 h -14.18 c -6.563,0 -11.903,5.34 -11.903,11.903 0,6.563 5.34,11.903 11.903,11.903 h 5.724 l 6.271,17.989 -1.639,1.049 c -6.472,-6.243 -14.955,-9.681 -23.885,-9.681 -18.997,0 -34.451,15.455 -34.451,34.451 v 73.638 c 0,4.178 2.232,8.099 5.825,10.234 1.839,1.092 3.941,1.669 6.079,1.669 1.984,0 3.953,-0.502 5.694,-1.45 l 36.938,-20.125 z"
   id="path28"
   inkscape:connector-curvature="0"
   style="fill:#ed1f34" />
	<path
   d="m 387.959,326.882 h -35.73 -145.321 -35.727 v 156.396 c 0,59.766 48.623,108.389 108.389,108.389 59.766,0 108.389,-48.622 108.389,-108.389 z M 362.15,494.943 c 0,4.553 -2.399,8.77 -6.313,11.094 -2.028,1.204 -4.309,1.81 -6.59,1.81 -2.123,0 -4.246,-0.522 -6.173,-1.572 L 306.73,486.474 c -3.792,3.135 -8.583,6.066 -14.257,7.938 v 58.548 c 0,7.126 -5.777,12.903 -12.903,12.903 -7.126,0 -12.903,-5.777 -12.903,-12.903 v -58.548 c -5.674,-1.872 -10.465,-4.804 -14.257,-7.938 l -36.344,19.801 c -1.927,1.05 -4.052,1.572 -6.173,1.572 -2.281,0 -4.561,-0.605 -6.589,-1.81 -3.914,-2.326 -6.314,-6.541 -6.314,-11.094 v -73.638 c 0,-19.548 15.904,-35.451 35.451,-35.451 9.543,0 18.2,3.808 24.58,9.961 l -6.037,-17.318 h -5.014 c -7.126,0 -12.903,-5.777 -12.903,-12.903 0,-7.126 5.777,-12.903 12.903,-12.903 h 14.18 c 5.488,0 10.377,3.474 12.184,8.656 l 7.236,20.759 7.236,-20.759 c 1.806,-5.184 6.696,-8.656 12.184,-8.656 h 14.18 c 7.126,0 12.903,5.777 12.903,12.903 0,7.126 -5.777,12.903 -12.903,12.903 h -5.014 l -6.037,17.318 c 6.38,-6.154 15.037,-9.961 24.58,-9.961 19.548,0 35.451,15.903 35.451,35.451 z"
   id="path30"
   inkscape:connector-curvature="0"
   style="fill:#ed1f34" />
	<path
   d="m 242.085,462.71 v -41.406 c 0,-5.317 -4.327,-9.645 -9.645,-9.645 -5.318,0 -9.645,4.327 -9.645,9.645 v 51.914 z"
   id="path32"
   inkscape:connector-curvature="0"
   style="fill:#ffffff" />
	<path
   d="m 336.344,421.304 c 0,-5.317 -4.326,-9.645 -9.645,-9.645 -5.317,0 -9.645,4.327 -9.645,9.645 v 41.406 l 19.289,10.508 v -51.914 z"
   id="path34"
   inkscape:connector-curvature="0"
   style="fill:#ffffff" />
	<path
   d="m 362.15,421.304 c 0,-19.548 -15.903,-35.451 -35.451,-35.451 -9.543,0 -18.2,3.807 -24.58,9.961 l 6.037,-17.318 h 5.014 c 7.126,0 12.903,-5.777 12.903,-12.903 0,-7.126 -5.777,-12.903 -12.903,-12.903 h -14.18 c -5.488,0 -10.378,3.474 -12.184,8.655 l -7.236,20.759 -7.236,-20.759 c -1.807,-5.184 -6.696,-8.655 -12.184,-8.655 h -14.18 c -7.126,0 -12.903,5.777 -12.903,12.903 0,7.126 5.777,12.903 12.903,12.903 h 5.014 l 6.037,17.318 c -6.379,-6.154 -15.037,-9.961 -24.58,-9.961 -19.547,0 -35.451,15.903 -35.451,35.451 v 73.639 c 0,4.552 2.4,8.769 6.314,11.093 2.028,1.204 4.308,1.81 6.589,1.81 2.121,0 4.248,-0.522 6.173,-1.572 l 36.344,-19.8 c 3.792,3.134 8.583,6.065 14.257,7.938 v 58.548 c 0,7.126 5.777,12.903 12.903,12.903 7.126,0 12.903,-5.777 12.903,-12.903 v -58.55 c 5.674,-1.872 10.465,-4.804 14.257,-7.938 l 36.344,19.8 c 1.927,1.05 4.05,1.572 6.173,1.572 2.281,0 4.562,-0.605 6.59,-1.81 3.914,-2.326 6.313,-6.541 6.313,-11.093 z m -139.354,0 c 0,-5.317 4.327,-9.645 9.645,-9.645 5.318,0 9.645,4.327 9.645,9.645 v 41.406 l -19.289,10.508 v -51.914 z m 68.452,44.425 c -2.231,2.146 -6.195,4.949 -11.678,4.949 -5.483,0 -9.447,-2.805 -11.678,-4.949 v -31.521 h 23.356 z m 25.807,-3.019 v -41.406 c 0,-5.317 4.327,-9.645 9.645,-9.645 5.318,0 9.645,4.327 9.645,9.645 v 51.914 z"
   id="path36"
   inkscape:connector-curvature="0" />
	<path
   d="m 279.57,471.677 c -5.733,0 -9.892,-2.844 -12.372,-5.229 l -0.307,-0.295 v -32.946 h 25.356 v 32.946 l -0.307,0.295 c -2.48,2.386 -6.64,5.229 -12.37,5.229 z"
   id="path38"
   inkscape:connector-curvature="0"
   style="fill:#ed1f34" />
	<path
   d="m 267.892,434.207 v 31.521 c 2.231,2.146 6.195,4.949 11.678,4.949 5.483,0 9.447,-2.804 11.678,-4.949 v -31.521 z"
   id="path40"
   inkscape:connector-curvature="0"
   style="fill:#ed1f34" />
	<path
   d="m 215.956,302.075 -6.757,-24.308 19.284,11.648 c 1.855,1.122 3.983,1.714 6.152,1.714 2.169,0 4.298,-0.593 6.155,-1.714 l 38.774,-23.419 38.781,23.421 c 1.857,1.122 3.985,1.714 6.153,1.714 2.169,0 4.297,-0.592 6.154,-1.714 l 19.289,-11.649 -6.759,24.308 H 215.956 Z"
   id="path42"
   inkscape:connector-curvature="0"
   style="fill:#ffe000" />
	<path
   d="m 348.305,279.924 -17.134,10.348 c -4.104,2.478 -9.239,2.478 -13.342,0 l -38.264,-23.108 -38.257,23.107 c -4.104,2.478 -9.242,2.478 -13.342,0 l -17.129,-10.347 5.879,21.151 h 125.708 z"
   id="path44"
   inkscape:connector-curvature="0"
   style="fill:#ffe000" />
</g>
</svg>