<?xml version="1.0" standalone="no"?>
<!DOCTYPE svg PUBLIC "-//W3C//DTD SVG 1.1//EN" "http://www.w3.org/Graphics/SVG/1.1/DTD/svg11.dtd" >
<svg xmlns="http://www.w3.org/2000/svg" xmlns:xlink="http://www.w3.org/1999/xlink" version="1.1">
<metadata>
Created by FontForge 20170731 at Fri Mar  6 17:13:31 1998
 By Aleksey,,,
Typeface (c) 1992 Fonderia Caratteri Svizzera Walter Fruttiger A.G. Data (c) 1992 URW. Portions (c) 1992 Microsoft Corp. All rights reserved.
</metadata>
<defs>
<font id="Stop" horiz-adv-x="1229" >
  <font-face 
    font-family="Stop"
    font-weight="400"
    font-stretch="normal"
    units-per-em="2048"
    panose-1="4 3 8 5 2 11 2 2 4 4"
    ascent="1638"
    descent="-410"
    cap-height="1365"
    bbox="-142 -512 2678 1849"
    underline-thickness="126"
    underline-position="-399"
    unicode-range="U+0020-25CA"
  />
<missing-glyph horiz-adv-x="682" 
d="M68 0v1365h546v-1365h-546zM546 68v1229h-410v-1229h410z" />
    <glyph glyph-name=".notdef" horiz-adv-x="682" 
d="M68 0v1365h546v-1365h-546zM546 68v1229h-410v-1229h410z" />
    <glyph glyph-name="glyph1" horiz-adv-x="0" 
 />
    <glyph glyph-name="glyph2" horiz-adv-x="682" 
 />
    <glyph glyph-name="space" unicode=" " horiz-adv-x="512" 
 />
    <glyph glyph-name="exclam" unicode="!" horiz-adv-x="623" 
d="M479 1365l-30 -846h-286v846h316zM464 324v-324h-321v324h321z" />
    <glyph glyph-name="quotedbl" unicode="&#x22;" horiz-adv-x="905" 
d="M357 822h-241l-48 543h337zM788 822h-241l-48 543h337z" />
    <glyph glyph-name="numbersign" unicode="#" 
d="M1151 582l-37 -229h-187l-56 -353h-265l56 353h-197l-56 -353h-262l56 353h-187l37 229h187l31 202h-187l37 229h186l56 352h262l-55 -352h197l55 352h265l-56 -352h181l-37 -229h-180l-32 -202h188zM730 784h-197l-31 -202h197z" />
    <glyph glyph-name="dollar" unicode="$" horiz-adv-x="1231" 
d="M167 329h425q60 0 92.5 25t32.5 71q0 38 -29.5 61.5t-76.5 23.5l-87 2q-139 0 -240 73q-89 64 -125 153q-15 37 -31 102h538q117 0 209.5 -44.5t152.5 -129.5q75 -105 75 -238q0 -158 -94 -271q-42 -51 -91 -80.5t-137 -56.5v-76h-331v61h-283v324zM1022 1365v-324h-894
q22 80 44.5 123.5t61.5 82.5q44 45 93.5 71t134.5 47v55h331v-55h229z" />
    <glyph glyph-name="percent" unicode="%" horiz-adv-x="1885" 
d="M384 1381q142 0 238 -93q117 -114 117 -322q0 -215 -119 -323q-93 -86 -238 -86q-164 0 -260 111t-96 300q0 192 96 302.5t262 110.5zM385 1197q-53 0 -78 -55t-25 -173q0 -117 25 -172.5t77 -55.5q51 0 75 53.5t24 168.5q0 119 -24.5 176.5t-73.5 57.5zM1022 1365h254
l-399 -1365h-255zM1504 808q142 0 238 -93q116 -114 116 -322q0 -215 -118 -323q-93 -86 -238 -86q-163 0 -259 111t-96 300q0 192 95.5 302.5t261.5 110.5zM1505 624q-53 0 -77.5 -55t-24.5 -173q0 -117 24.5 -172.5t76.5 -55.5q51 0 74.5 53.5t23.5 168.5q0 118 -24 176
t-73 58z" />
    <glyph glyph-name="ampersand" unicode="&#x26;" horiz-adv-x="966" 
d="M876 512h-373q-79 0 -109 -33q-25 -27 -25 -66q0 -45 31 -69q27 -20 98 -20h427v-324h-407q-139 0 -235.5 29.5t-160.5 90.5q-108 105 -108 281q0 170 97 279q48 55 106.5 82t166.5 42q-59 58 -84 99q-48 80 -48 166q0 61 25 119.5t70 99.5q44 41 104.5 59t151.5 18h247
v-328h-160q-51 0 -72 -19t-21 -45q0 -17 6.5 -30.5t33.5 -55.5z" />
    <glyph glyph-name="quotesingle" unicode="'" horiz-adv-x="474" 
d="M357 822h-241l-48 543h337z" />
    <glyph glyph-name="parenleft" unicode="(" horiz-adv-x="580" 
d="M553 1516v-298q-50 -19 -75.5 -43t-44.5 -68q-25 -58 -36 -159.5t-11 -278.5t11 -278.5t36 -159.5q19 -44 44.5 -68t75.5 -43v-297q-83 11 -128 27q-106 36 -187 126q-58 64 -95 149t-60 207q-28 148 -28 337t28 337q23 122 60 207t95 149q81 90 187 126q45 16 128 28z
" />
    <glyph glyph-name="parenright" unicode=")" horiz-adv-x="580" 
d="M27 -177v297q50 19 75.5 43t44.5 68q25 57 36 159t11 279t-11 279t-36 159q-19 44 -44.5 68t-75.5 43v298q83 -12 128 -28q106 -36 187 -126q58 -64 95 -149t60 -207q28 -147 28 -337t-28 -337q-23 -122 -60 -207t-95 -149q-81 -90 -187 -126q-45 -16 -128 -27z" />
    <glyph glyph-name="asterisk" unicode="*" horiz-adv-x="995" 
d="M619 1365v-244l226 78l71 -222l-224 -75l148 -199l-191 -138l-144 202l-153 -202l-195 138l157 199l-235 75l79 222l232 -78v244h229z" />
    <glyph glyph-name="plus" unicode="+" 
d="M155 843h282v297h355v-297h282v-324h-282v-298h-355v298h-282v324z" />
    <glyph glyph-name="comma" unicode="," horiz-adv-x="608" 
d="M465 219l-164 -478h-158v478h322z" />
    <glyph glyph-name="hyphen" unicode="-" horiz-adv-x="806" 
d="M806 771v-324h-806v324h806z" />
    <glyph glyph-name="hyphen" unicode="&#xad;" horiz-adv-x="806" 
d="M806 771v-324h-806v324h806z" />
    <glyph glyph-name="period" unicode="." horiz-adv-x="608" 
d="M464 324v-324h-321v324h321z" />
    <glyph glyph-name="slash" unicode="/" horiz-adv-x="670" 
d="M340 1488h309l-320 -1638h-309z" />
    <glyph glyph-name="zero" unicode="0" 
d="M617 1392q229 0 382 -161q95 -100 141 -240.5t46 -328.5q0 -173 -48 -311t-141 -230q-150 -148 -384 -148q-219 0 -364 138q-205 194 -205 571q0 357 179 549q73 79 174 120t220 41zM619 1078q-98 0 -143.5 -95.5t-45.5 -298.5q0 -204 45.5 -300.5t142.5 -96.5
q94 0 138 93.5t44 291.5q0 114 -15 201.5t-43 131.5q-45 73 -123 73z" />
    <glyph glyph-name="one" unicode="1" 
d="M879 1365v-1365h-372v1038h-239l239 327h372z" />
    <glyph glyph-name="two" unicode="2" horiz-adv-x="1231" 
d="M141 1365h444q146 0 238 -32t161 -106q52 -56 80.5 -131t28.5 -157q0 -161 -103 -277q-42 -47 -95 -80.5t-107 -46.5q-82 -19 -204 -19h-443q-2 42 -2 58q0 58 11.5 98.5t39.5 75.5q38 49 91.5 70.5t139.5 21.5h155q64 0 97.5 25.5t33.5 74.5q0 47 -31 73q-32 28 -120 28
h-415v324zM1040 324v-324h-899v324h899z" />
    <glyph glyph-name="three" unicode="3" 
d="M471 840h138q232 0 362 -120q120 -111 120 -290q0 -161 -93 -276q-64 -80 -155 -117t-224 -37h-481v324h436q50 0 70.5 5t35.5 22q25 28 25 68q0 51 -36 74t-116 23h-303zM1065 1365l-230 -324h-697v324h927z" />
    <glyph glyph-name="four" unicode="4" 
d="M925 1365l-258 -525h450v-324h-1020l424 849h404zM994 324v-324h-474v324h474z" />
    <glyph glyph-name="five" unicode="5" 
d="M167 840h419q139 0 235 -33t161 -104q51 -55 79 -128.5t28 -152.5q0 -81 -30 -157.5t-83 -133.5q-65 -68 -155 -99.5t-221 -31.5h-433v324h399q66 0 101.5 25.5t35.5 72.5q0 48 -34 71t-105 23h-397v324zM1012 1365v-324h-845v324h845z" />
    <glyph glyph-name="six" unicode="6" 
d="M899 1365l-361 -639q-52 -92 -72 -147.5t-20 -107.5q0 -85 55 -137q50 -47 115 -47q71 0 119 53t48 133q0 75 -31.5 155t-114.5 212h422q60 -126 81.5 -203t21.5 -162q0 -171 -93 -296q-73 -100 -189.5 -153t-263.5 -53q-129 0 -236 41t-180 120q-64 68 -98.5 158.5
t-34.5 189.5q0 94 29 185t98 213l274 485h431z" />
    <glyph glyph-name="seven" unicode="7" 
d="M912 840l-270 -840h-392l282 840h380zM1084 1365l-105 -324h-834v324h939z" />
    <glyph glyph-name="eight" unicode="8" 
d="M976 710q58 -36 90 -63t55 -59q65 -90 65 -205q0 -183 -148 -295q-78 -58 -184 -86.5t-248 -28.5q-148 0 -257 32.5t-187 99.5q-119 103 -119 269q0 117 61 204q23 33 53.5 61.5t86.5 70.5q-83 63 -117 113q-59 86 -59 189q0 78 34 148t97 119q145 113 424 113
q271 0 412 -121q57 -50 89 -118t32 -141q0 -112 -71 -201q-33 -41 -109 -101zM633 699q81 76 112.5 126t31.5 103q0 62 -48 109q-42 41 -115 41q-75 0 -121 -42t-46 -110q0 -53 30 -100t116 -127q-82 -69 -113 -107t-44.5 -70t-13.5 -70q0 -73 53 -119t138 -46q86 0 140 47
t54 121q0 70 -59 140q-32 39 -115 104z" />
    <glyph glyph-name="nine" unicode="9" 
d="M338 0l353 631q49 88 70.5 147.5t21.5 109.5q0 45 -18 86t-49 67q-44 37 -104 37q-74 0 -120.5 -54t-46.5 -140q0 -67 32 -151q28 -74 117 -221h-420q-63 127 -85.5 205t-22.5 168q0 209 133 347q75 78 180 119t228 41q128 0 238.5 -42t182.5 -118q65 -68 99.5 -158.5
t34.5 -193.5q0 -90 -25 -171.5t-89 -196.5l-282 -512h-428z" />
    <glyph glyph-name="colon" unicode=":" horiz-adv-x="608" 
d="M464 324v-324h-321v324h321zM464 827v-324h-321v324h321z" />
    <glyph glyph-name="semicolon" unicode=";" horiz-adv-x="608" 
d="M465 219l-164 -478h-158v478h322zM464 827v-324h-321v324h321z" />
    <glyph glyph-name="less" unicode="&#x3c;" horiz-adv-x="887" 
d="M887 1301v-326l-540 -285l540 -285v-324l-887 473v274z" />
    <glyph glyph-name="equal" unicode="=" 
d="M155 1062h919v-324h-919v324zM155 623h919v-324h-919v324z" />
    <glyph glyph-name="greater" unicode="&#x3e;" horiz-adv-x="887" 
d="M0 81v326l541 285l-540 285v324l886 -473v-274z" />
    <glyph glyph-name="question" unicode="?" horiz-adv-x="976" 
d="M633 512h-346l167 367q23 51 23 76q0 37 -28 61q-14 12 -37.5 16.5t-71.5 4.5h-238v328h294q127 0 215.5 -33.5t145.5 -102.5q75 -92 75 -209q0 -46 -13 -93t-44 -113zM619 324v-324h-321v324h321z" />
    <glyph glyph-name="at" unicode="@" horiz-adv-x="1499" 
d="M1046 978l-27 -157h-179q-58 0 -96 -11t-65 -35q-31 -27 -50.5 -69.5t-19.5 -82.5q0 -69 44 -106t127 -37l43 247h179l-44 -247h67q53 0 101 19.5t79 54.5q34 37 53 96t19 128q0 185 -113 301q-64 66 -160 102.5t-206 36.5q-127 0 -234 -48t-186 -139q-64 -75 -98.5 -169
t-34.5 -194q0 -96 32 -186t90 -160q75 -91 179 -133t251 -42q188 0 368 64l48 -185q-89 -30 -197.5 -46.5t-221.5 -16.5q-372 0 -582 229q-88 96 -136.5 221.5t-48.5 257.5q0 131 48 257t136 225q105 118 254 183.5t313 65.5q159 0 293 -50t229 -144q83 -83 129 -191.5
t46 -221.5q0 -117 -53 -217t-148 -164q-70 -47 -164 -69t-223 -22q-128 0 -238 26q-49 12 -94 38.5t-74 60.5q-56 66 -56 169q0 86 36.5 162.5t98.5 123.5q48 35 119.5 55t151.5 20h215z" />
    <glyph glyph-name="A" unicode="A" 
d="M830 1365l427 -1365h-1284l277 840h340l-146 -516h351l-370 1041h405z" />
    <glyph glyph-name="A" unicode="a" 
d="M830 1365l427 -1365h-1284l277 840h340l-146 -516h351l-370 1041h405z" />
    <glyph glyph-name="B" unicode="B" horiz-adv-x="1118" 
d="M82 1365h451q122 0 201 -7q121 -10 206 -77q57 -46 89 -119.5t32 -158.5q0 -104 -44 -182q-23 -41 -55.5 -70.5t-91.5 -60.5q47 -19 75 -37t54 -48q78 -88 78 -226q0 -75 -27 -146t-75 -120q-43 -44 -103.5 -72t-127.5 -34q-68 -7 -162 -7h-500v324h445q74 0 102 29
q28 30 28 74q0 42 -26 69q-27 27 -105 27h-444v324h445q50 0 79.5 8t45.5 27q23 27 23 66q0 47 -31.5 70t-95.5 23h-466v324z" />
    <glyph glyph-name="B" unicode="b" horiz-adv-x="1118" 
d="M82 1365h451q122 0 201 -7q121 -10 206 -77q57 -46 89 -119.5t32 -158.5q0 -104 -44 -182q-23 -41 -55.5 -70.5t-91.5 -60.5q47 -19 75 -37t54 -48q78 -88 78 -226q0 -75 -27 -146t-75 -120q-43 -44 -103.5 -72t-127.5 -34q-68 -7 -162 -7h-500v324h445q74 0 102 29
q28 30 28 74q0 42 -26 69q-27 27 -105 27h-444v324h445q50 0 79.5 8t45.5 27q23 27 23 66q0 47 -31.5 70t-95.5 23h-466v324z" />
    <glyph glyph-name="C" unicode="C" horiz-adv-x="1011" 
d="M970 1365v-324h-138q-110 0 -183 -30t-127 -97q-81 -100 -81 -234q0 -126 78 -223q57 -72 132.5 -102.5t196.5 -30.5h122v-324h-184q-209 0 -358.5 69t-248.5 211q-60 86 -92 189t-32 209q0 107 33 213.5t94 193.5q62 89 147 152t181 91q127 37 290 37h170z" />
    <glyph glyph-name="C" unicode="c" horiz-adv-x="1011" 
d="M970 1365v-324h-138q-110 0 -183 -30t-127 -97q-81 -100 -81 -234q0 -126 78 -223q57 -72 132.5 -102.5t196.5 -30.5h122v-324h-184q-209 0 -358.5 69t-248.5 211q-60 86 -92 189t-32 209q0 107 33 213.5t94 193.5q62 89 147 152t181 91q127 37 290 37h170z" />
    <glyph glyph-name="D" unicode="D" horiz-adv-x="1308" 
d="M82 1365h448q146 0 262 -35.5t206 -107.5q120 -96 187.5 -239.5t67.5 -303.5q0 -227 -135 -408q-60 -80 -138.5 -139.5t-161.5 -87.5q-128 -44 -304 -44h-432v840h372v-519q104 0 178.5 25t128.5 78q49 49 77.5 118.5t28.5 140.5q0 70 -29 140t-78 119
q-54 54 -123.5 76.5t-183.5 22.5h-371v324z" />
    <glyph glyph-name="D" unicode="d" horiz-adv-x="1308" 
d="M82 1365h448q146 0 262 -35.5t206 -107.5q120 -96 187.5 -239.5t67.5 -303.5q0 -227 -135 -408q-60 -80 -138.5 -139.5t-161.5 -87.5q-128 -44 -304 -44h-432v840h372v-519q104 0 178.5 25t128.5 78q49 49 77.5 118.5t28.5 140.5q0 70 -29 140t-78 119
q-54 54 -123.5 76.5t-183.5 22.5h-371v324z" />
    <glyph glyph-name="E" unicode="E" horiz-adv-x="1083" 
d="M1001 840v-324h-547v-192h547v-324h-919v840h919zM1001 1365v-324h-919v324h919z" />
    <glyph glyph-name="E" unicode="e" horiz-adv-x="1083" 
d="M1001 840v-324h-547v-192h547v-324h-919v840h919zM1001 1365v-324h-919v324h919z" />
    <glyph glyph-name="F" unicode="F" horiz-adv-x="1045" 
d="M1004 840v-324h-550v-516h-372v840h922zM1004 1365v-324h-922v324h922z" />
    <glyph glyph-name="F" unicode="f" horiz-adv-x="1045" 
d="M1004 840v-324h-550v-516h-372v840h922zM1004 1365v-324h-922v324h922z" />
    <glyph glyph-name="G" unicode="G" horiz-adv-x="1227" 
d="M1144 1365v-324h-305q-111 0 -185 -28t-126 -90q-42 -50 -65 -115.5t-23 -136.5q0 -91 37 -170.5t103 -132.5q102 -81 238 -81q102 0 185 52q39 25 68.5 55t72.5 90v-418q-93 -49 -182 -71t-194 -22q-147 0 -275.5 49.5t-226.5 143.5q-101 96 -156.5 230t-55.5 279
q0 123 40.5 236.5t116.5 205.5q63 75 142.5 129.5t161.5 78.5q142 40 345 40h284zM1144 840v-324h-413v324h413z" />
    <glyph glyph-name="G" unicode="g" horiz-adv-x="1227" 
d="M1144 1365v-324h-305q-111 0 -185 -28t-126 -90q-42 -50 -65 -115.5t-23 -136.5q0 -91 37 -170.5t103 -132.5q102 -81 238 -81q102 0 185 52q39 25 68.5 55t72.5 90v-418q-93 -49 -182 -71t-194 -22q-147 0 -275.5 49.5t-226.5 143.5q-101 96 -156.5 230t-55.5 279
q0 123 40.5 236.5t116.5 205.5q63 75 142.5 129.5t161.5 78.5q142 40 345 40h284zM1144 840v-324h-413v324h413z" />
    <glyph glyph-name="H" unicode="H" horiz-adv-x="932" 
d="M454 1365v-525h465v-324h-465v-516h-372v1365h372z" />
    <glyph glyph-name="H" unicode="h" horiz-adv-x="932" 
d="M454 1365v-525h465v-324h-465v-516h-372v1365h372z" />
    <glyph glyph-name="I" unicode="I" horiz-adv-x="536" 
d="M454 840v-840h-372v840h372zM454 1365v-324h-372v324h372z" />
    <glyph glyph-name="I" unicode="i" horiz-adv-x="536" 
d="M454 840v-840h-372v840h372zM454 1365v-324h-372v324h372z" />
    <glyph glyph-name="J" unicode="J" horiz-adv-x="732" 
d="M649 840v-316q0 -146 -15 -233q-9 -54 -39 -106.5t-75 -92.5q-104 -92 -272 -92h-265v328h166q62 0 94 32q19 20 26.5 48.5t7.5 82.5v349h372zM649 1365v-324h-372v324h372z" />
    <glyph glyph-name="J" unicode="j" horiz-adv-x="732" 
d="M649 840v-316q0 -146 -15 -233q-9 -54 -39 -106.5t-75 -92.5q-104 -92 -272 -92h-265v328h166q62 0 94 32q19 20 26.5 48.5t7.5 82.5v349h372zM649 1365v-324h-372v324h372z" />
    <glyph glyph-name="K" unicode="K" horiz-adv-x="933" 
d="M909 1365l-542 -650l579 -715h-482l-437 549v290l437 526h445z" />
    <glyph glyph-name="K" unicode="k" horiz-adv-x="933" 
d="M909 1365l-542 -650l579 -715h-482l-437 549v290l437 526h445z" />
    <glyph glyph-name="L" unicode="L" horiz-adv-x="908" 
d="M454 1365v-1041h468v-324h-840v1365h372z" />
    <glyph glyph-name="L" unicode="l" horiz-adv-x="908" 
d="M454 1365v-1041h468v-324h-840v1365h372z" />
    <glyph glyph-name="M" unicode="M" horiz-adv-x="1652" 
d="M82 1365h968q169 0 267 -24q95 -23 167 -112q46 -57 66 -135.5t20 -201.5v-892h-372v877q0 56 -7.5 84t-27.5 47q-19 18 -48.5 25.5t-77.5 7.5h-583v-1041h-372v1365zM999 840v-840h-345v840h345z" />
    <glyph glyph-name="M" unicode="m" horiz-adv-x="1652" 
d="M82 1365h968q169 0 267 -24q95 -23 167 -112q46 -57 66 -135.5t20 -201.5v-892h-372v877q0 56 -7.5 84t-27.5 47q-19 18 -48.5 25.5t-77.5 7.5h-583v-1041h-372v1365zM999 840v-840h-345v840h345z" />
    <glyph glyph-name="N" unicode="N" horiz-adv-x="1239" 
d="M82 1365h592q129 0 226 -25q88 -23 156 -94q52 -53 76.5 -133t24.5 -194v-919h-372v901q0 70 -25 102q-31 38 -126 38h-180v-1041h-372v1365z" />
    <glyph glyph-name="N" unicode="n" horiz-adv-x="1239" 
d="M82 1365h592q129 0 226 -25q88 -23 156 -94q52 -53 76.5 -133t24.5 -194v-919h-372v901q0 70 -25 102q-31 38 -126 38h-180v-1041h-372v1365z" />
    <glyph glyph-name="O" unicode="O" horiz-adv-x="1514" 
d="M755 1392q121 0 236.5 -37t206.5 -105q129 -96 195.5 -242t66.5 -332q0 -130 -40.5 -249t-116.5 -212q-97 -120 -232.5 -181t-303.5 -61t-306.5 59.5t-238.5 175.5q-167 194 -167 469q0 161 59.5 301.5t168.5 237.5q197 176 472 176zM756 1078q-148 0 -231.5 -104.5
t-83.5 -288.5q0 -99 27 -180.5t77 -134.5q80 -83 215 -83q147 0 230.5 105t83.5 291q0 182 -85.5 288.5t-232.5 106.5z" />
    <glyph glyph-name="O" unicode="o" horiz-adv-x="1514" 
d="M755 1392q121 0 236.5 -37t206.5 -105q129 -96 195.5 -242t66.5 -332q0 -130 -40.5 -249t-116.5 -212q-97 -120 -232.5 -181t-303.5 -61t-306.5 59.5t-238.5 175.5q-167 194 -167 469q0 161 59.5 301.5t168.5 237.5q197 176 472 176zM756 1078q-148 0 -231.5 -104.5
t-83.5 -288.5q0 -99 27 -180.5t77 -134.5q80 -83 215 -83q147 0 230.5 105t83.5 291q0 182 -85.5 288.5t-232.5 106.5z" />
    <glyph glyph-name="P" unicode="P" horiz-adv-x="1097" 
d="M82 1365h462q148 0 238 -29t157 -99q55 -58 86 -137t31 -162t-30 -159t-86 -135q-68 -70 -150.5 -99t-215.5 -29h-120v-516h-372v840h422q52 0 81 5t46 18q39 28 39 79q0 53 -37.5 76t-125.5 23h-425v324z" />
    <glyph glyph-name="P" unicode="p" horiz-adv-x="1097" 
d="M82 1365h462q148 0 238 -29t157 -99q55 -58 86 -137t31 -162t-30 -159t-86 -135q-68 -70 -150.5 -99t-215.5 -29h-120v-516h-372v840h422q52 0 81 5t46 18q39 28 39 79q0 53 -37.5 76t-125.5 23h-425v324z" />
    <glyph glyph-name="Q" unicode="Q" horiz-adv-x="1420" 
d="M755 340q122 140 166 214q38 64 55 117.5t17 108.5q0 126 -82.5 212t-203.5 86q-122 0 -206 -90q-39 -41 -60 -92.5t-21 -105.5q0 -75 43.5 -159t128.5 -173l438 -458h-505l-238 243q-174 177 -224 347q-22 77 -22 175q0 112 38.5 217.5t109.5 189.5q91 107 222.5 163.5
t291.5 56.5q163 0 299.5 -59.5t231.5 -171.5q69 -82 107 -183t38 -202q0 -155 -84 -293q-35 -58 -114 -143h-426z" />
    <glyph glyph-name="Q" unicode="q" horiz-adv-x="1420" 
d="M755 340q122 140 166 214q38 64 55 117.5t17 108.5q0 126 -82.5 212t-203.5 86q-122 0 -206 -90q-39 -41 -60 -92.5t-21 -105.5q0 -75 43.5 -159t128.5 -173l438 -458h-505l-238 243q-174 177 -224 347q-22 77 -22 175q0 112 38.5 217.5t109.5 189.5q91 107 222.5 163.5
t291.5 56.5q163 0 299.5 -59.5t231.5 -171.5q69 -82 107 -183t38 -202q0 -155 -84 -293q-35 -58 -114 -143h-426z" />
    <glyph glyph-name="R" unicode="R" horiz-adv-x="1058" 
d="M41 1365h470q125 0 217 -15q60 -9 115 -39.5t93 -75.5t59.5 -106t21.5 -128q0 -129 -66 -217q-36 -49 -84.5 -76t-134.5 -46q70 -15 107.5 -36.5t65.5 -62.5q51 -74 51 -200v-363h-372v323q0 98 -37 140q-23 28 -68 40.5t-119 12.5h-319v324h443q54 0 81.5 8t42.5 27
q23 28 23 66q0 47 -30 75q-29 25 -102 25h-458v324z" />
    <glyph glyph-name="R" unicode="r" horiz-adv-x="1058" 
d="M41 1365h470q125 0 217 -15q60 -9 115 -39.5t93 -75.5t59.5 -106t21.5 -128q0 -129 -66 -217q-36 -49 -84.5 -76t-134.5 -46q70 -15 107.5 -36.5t65.5 -62.5q51 -74 51 -200v-363h-372v323q0 98 -37 140q-23 28 -68 40.5t-119 12.5h-319v324h443q54 0 81.5 8t42.5 27
q23 28 23 66q0 47 -30 75q-29 25 -102 25h-458v324z" />
    <glyph glyph-name="S" unicode="S" horiz-adv-x="952" 
d="M481 1365q-13 -56 -13 -87q0 -44 26 -91t92 -121q133 -152 184.5 -217.5t83.5 -123.5q38 -69 54.5 -128.5t16.5 -127.5q0 -85 -29 -165.5t-81 -141.5q-138 -162 -423 -162h-378v324h335q107 0 153 53q37 44 37 95q0 59 -42 121.5t-207 250.5q-76 88 -116.5 144.5
t-59.5 103.5q-32 79 -32 144q0 48 14 129h385z" />
    <glyph glyph-name="S" unicode="s" horiz-adv-x="952" 
d="M481 1365q-13 -56 -13 -87q0 -44 26 -91t92 -121q133 -152 184.5 -217.5t83.5 -123.5q38 -69 54.5 -128.5t16.5 -127.5q0 -85 -29 -165.5t-81 -141.5q-138 -162 -423 -162h-378v324h335q107 0 153 53q37 44 37 95q0 59 -42 121.5t-207 250.5q-76 88 -116.5 144.5
t-59.5 103.5q-32 79 -32 144q0 48 14 129h385z" />
    <glyph glyph-name="T" unicode="T" horiz-adv-x="977" 
d="M491 840v-340q0 -95 23 -129q18 -25 47 -34t90 -9h243v-328h-350q-108 0 -183.5 25.5t-129.5 80.5q-69 70 -90 158q-22 92 -22 217v359h372zM936 1365v-324h-881v324h881z" />
    <glyph glyph-name="T" unicode="t" horiz-adv-x="977" 
d="M491 840v-340q0 -95 23 -129q18 -25 47 -34t90 -9h243v-328h-350q-108 0 -183.5 25.5t-129.5 80.5q-69 70 -90 158q-22 92 -22 217v359h372zM936 1365v-324h-881v324h881z" />
    <glyph glyph-name="U" unicode="U" horiz-adv-x="1240" 
d="M1158 1365v-1365h-640q-123 0 -209 28q-57 19 -106.5 64.5t-78.5 107.5q-42 86 -42 254v911h372v-868q0 -66 8 -96.5t30 -49.5q17 -15 45 -21t76 -6h173v1041h372z" />
    <glyph glyph-name="U" unicode="u" horiz-adv-x="1240" 
d="M1158 1365v-1365h-640q-123 0 -209 28q-57 19 -106.5 64.5t-78.5 107.5q-42 86 -42 254v911h372v-868q0 -66 8 -96.5t30 -49.5q17 -15 45 -21t76 -6h173v1041h372z" />
    <glyph glyph-name="V" unicode="V" horiz-adv-x="1232" 
d="M1260 1359l-453 -1359h-407l-427 1365h396l171 -625q26 -96 68 -346q36 220 69 333l186 638z" />
    <glyph glyph-name="V" unicode="v" horiz-adv-x="1232" 
d="M1260 1359l-453 -1359h-407l-427 1365h396l171 -625q26 -96 68 -346q36 220 69 333l186 638z" />
    <glyph glyph-name="W" unicode="W" horiz-adv-x="1636" 
d="M1663 1365l-563 -1387l-429 1008l234 398l195 -576l176 557h387zM379 1365l411 -1010l-223 -377l-594 1387h406z" />
    <glyph glyph-name="W" unicode="w" horiz-adv-x="1636" 
d="M1663 1365l-563 -1387l-429 1008l234 398l195 -576l176 557h387zM379 1365l411 -1010l-223 -377l-594 1387h406z" />
    <glyph glyph-name="X" unicode="X" horiz-adv-x="1211" 
d="M1170 1365v-328q-94 -5 -150.5 -24.5t-107.5 -64.5q-57 -50 -89.5 -122t-32.5 -148q0 -67 24.5 -130.5t69.5 -112.5q53 -58 123 -86t163 -28v-321h-57q-145 0 -244 37q-88 33 -148 88.5t-118 158.5q-33 -66 -62 -103.5t-70 -69.5q-61 -48 -146.5 -76.5t-177.5 -32.5
q-40 -2 -106 -2v321q47 0 86 5q64 9 122 44.5t99 90.5q70 95 70 214q0 69 -25 133.5t-69 112.5q-50 55 -112 80.5t-171 35.5v328h84q279 -7 419 -198q25 -34 59 -100q38 76 71.5 118.5t83.5 78.5q61 44 142 70.5t166 29.5q29 1 62 1h42z" />
    <glyph glyph-name="X" unicode="x" horiz-adv-x="1211" 
d="M1170 1365v-328q-94 -5 -150.5 -24.5t-107.5 -64.5q-57 -50 -89.5 -122t-32.5 -148q0 -67 24.5 -130.5t69.5 -112.5q53 -58 123 -86t163 -28v-321h-57q-145 0 -244 37q-88 33 -148 88.5t-118 158.5q-33 -66 -62 -103.5t-70 -69.5q-61 -48 -146.5 -76.5t-177.5 -32.5
q-40 -2 -106 -2v321q47 0 86 5q64 9 122 44.5t99 90.5q70 95 70 214q0 69 -25 133.5t-69 112.5q-50 55 -112 80.5t-171 35.5v328h84q279 -7 419 -198q25 -34 59 -100q38 76 71.5 118.5t83.5 78.5q61 44 142 70.5t166 29.5q29 1 62 1h42z" />
    <glyph glyph-name="Y" unicode="Y" horiz-adv-x="1167" 
d="M1126 1365v-237q0 -139 -18 -238q-12 -72 -50.5 -142.5t-95.5 -123.5q-142 -136 -380 -136q-229 0 -373 129q-60 54 -99.5 124t-52.5 146q-16 91 -16 210v268h372v-340q0 -67 13 -108t43 -66q46 -39 113 -39q68 0 113 37q59 49 59 188v328h372zM890 324v-324h-624v324
h624z" />
    <glyph glyph-name="Y" unicode="y" horiz-adv-x="1167" 
d="M1126 1365v-237q0 -139 -18 -238q-12 -72 -50.5 -142.5t-95.5 -123.5q-142 -136 -380 -136q-229 0 -373 129q-60 54 -99.5 124t-52.5 146q-16 91 -16 210v268h372v-340q0 -67 13 -108t43 -66q46 -39 113 -39q68 0 113 37q59 49 59 188v328h372zM890 324v-324h-624v324
h624z" />
    <glyph glyph-name="Z" unicode="Z" horiz-adv-x="1094" 
d="M821 840l-228 -516h450v-324h-1002l373 840h407zM1052 1365l-143 -324h-826v324h969z" />
    <glyph glyph-name="Z" unicode="z" horiz-adv-x="1094" 
d="M821 840l-228 -516h450v-324h-1002l373 840h407zM1052 1365l-143 -324h-826v324h969z" />
    <glyph glyph-name="bracketleft" unicode="[" horiz-adv-x="597" 
d="M393 137h163v-287h-474v1638h474v-287h-163v-1064z" />
    <glyph glyph-name="backslash" unicode="\" horiz-adv-x="670" 
d="M332 1488l320 -1638h-309l-320 1638h309z" />
    <glyph glyph-name="bracketright" unicode="]" horiz-adv-x="606" 
d="M199 1201h-172v287h483v-1638h-483v287h172v1064z" />
    <glyph glyph-name="asciicircum" unicode="^" horiz-adv-x="972" 
d="M289 711h-289l304 663h364l304 -663h-289l-197 441z" />
    <glyph glyph-name="underscore" unicode="_" horiz-adv-x="1024" 
d="M0 -115h1024v-191h-1024v191z" />
    <glyph glyph-name="grave" unicode="`" horiz-adv-x="1024" 
d="M245 1748h317l108 -287h-265z" />
    <glyph glyph-name="braceleft" unicode="{" horiz-adv-x="626" 
d="M305 669q36 -19 54 -36t33 -45q35 -66 35 -177v-138v-23q0 -49 15 -66q18 -22 51 -30.5t100 -8.5v-295h-187q-68 0 -115.5 16t-83.5 50q-70 67 -70 227v229q0 78 -31 115q-29 34 -79 42v280q50 8 79 42q31 37 31 115v229q0 160 70 227q36 34 83.5 50t115.5 16h187v-295
q-67 0 -100 -8.5t-51 -30.5q-15 -17 -15 -66v-22v-139q0 -111 -35 -177q-15 -28 -33 -45t-54 -36z" />
    <glyph glyph-name="bar" unicode="|" horiz-adv-x="331" 
d="M0 1365h331v-1706h-331v1706z" />
    <glyph glyph-name="braceright" unicode="}" horiz-adv-x="771" 
d="M381 669q-36 19 -54 36t-33 44q-35 66 -35 177v139v25q0 47 -10 70.5t-34 34.5q-26 13 -116 13h-31v280h253q68 0 115.5 -16t83.5 -50q70 -68 70 -228v-229q0 -77 32 -114q29 -34 80 -43v-278q-51 -9 -80 -43q-32 -37 -32 -114v-229q0 -160 -70 -228q-69 -66 -199 -66
h-253v280h31q90 0 116 13q24 11 34 34.5t10 70.5v25v139q0 111 35 177q15 27 33 44t54 36z" />
    <glyph glyph-name="asciitilde" unicode="~" horiz-adv-x="991" 
d="M159 1122l-159 133q59 148 135 217t179 69q33 0 84.5 -15.5t140.5 -51.5q82 -34 105 -41.5t47 -7.5q41 0 74 28t68 94l158 -133q-34 -85 -62 -130.5t-68 -81.5q-78 -71 -191 -71q-64 0 -140 33l-87 38q-103 45 -147 45q-39 0 -70.5 -28.5t-66.5 -96.5z" />
    <glyph glyph-name="uni00A0" unicode="&#xa0;" horiz-adv-x="512" 
 />
    <glyph glyph-name="exclamdown" unicode="&#xa1;" horiz-adv-x="623" 
d="M163 0l30 847h286v-847h-316zM179 1041v324h321v-324h-321z" />
    <glyph glyph-name="cent" unicode="&#xa2;" 
d="M990 498v-307h-153v-61h-321v126q-70 37 -114 74t-84 95q-94 135 -94 297t94 297q40 58 84 95t114 74v127h321v-62h153v-307h-131q-87 0 -141 -21.5t-93 -71.5q-46 -60 -46 -131q0 -72 46 -131q39 -50 93 -71.5t141 -21.5h131z" />
    <glyph glyph-name="sterling" unicode="&#xa3;" 
d="M1081 1365v-324h-321q-51 0 -77.5 -9t-44.5 -32q-17 -21 -24 -53.5t-11 -106.5h345v-324h-754l42 434q11 118 41.5 194.5t85.5 124.5q59 52 140.5 74t215.5 22h362zM1081 324v-324h-934l30 324h904z" />
    <glyph glyph-name="currency" unicode="&#xa4;" 
d="M108 945l244 244l125 -125l22 7q68 20 115 20q30 0 51.5 -3.5t63.5 -16.5q8 -2 23 -7l124 125l244 -244l-124 -124q5 -16 7 -23q12 -41 16 -62.5t4 -52.5q0 -33 -4 -55t-16 -61l-7 -22l124 -124l-244 -244l-124 124q-80 -27 -138 -27q-60 0 -137 27l-125 -124l-244 244
l124 124q-4 15 -6 22q-13 41 -16.5 62.5t-3.5 53.5q0 31 3.5 51t16.5 64q2 7 6 23zM614 835q-63 0 -107.5 -44.5t-44.5 -107.5t45 -108t107 -45q64 0 108.5 44.5t44.5 108.5q0 63 -44.5 107.5t-108.5 44.5z" />
    <glyph glyph-name="yen" unicode="&#xa5;" 
d="M289 840l-233 525h376l181 -525l185 525h376l-237 -525h169v-324h-990v324h173zM795 324v-324h-372v324h372z" />
    <glyph glyph-name="brokenbar" unicode="&#xa6;" horiz-adv-x="331" 
d="M0 1365h331v-725h-331v725zM0 314h331v-655h-331v655z" />
    <glyph glyph-name="section" unicode="&#xa7;" horiz-adv-x="1228" 
d="M262 963h645q53 -38 82 -78q62 -85 62 -192q0 -93 -45 -172q-23 -41 -65 -76q64 -94 64 -210q0 -144 -83 -246q-113 -139 -345 -139h-333v324h293q31 0 44.5 5t23.5 20q14 20 14 43q0 28 -24.5 46t-96.5 42q-91 31 -139 53.5t-75 46.5q-49 44 -77.5 106.5t-28.5 125.5
q0 140 116 249q-17 21 -32 52zM599 755q-27 0 -46.5 -18.5t-19.5 -45.5q0 -26 19.5 -45t46.5 -19t46.5 19t19.5 45q0 27 -19.5 45.5t-46.5 18.5zM987 1164h-756q20 102 52 155t98 95q55 35 123 54.5t137 19.5h346v-324z" />
    <glyph glyph-name="dieresis" unicode="&#xa8;" horiz-adv-x="1024" 
d="M811 1746v-287h-266v287h266zM478 1746v-287h-266v287h266z" />
    <glyph glyph-name="copyright" unicode="&#xa9;" horiz-adv-x="1562" 
d="M1012 1065v-191h-87q-62 0 -102.5 -16t-70.5 -52q-45 -53 -45 -125q0 -67 43 -119q32 -39 74 -55t110 -16h78v-191h-114q-122 0 -210 38.5t-147 117.5q-73 99 -73 224q0 127 75 229q59 81 146.5 118.5t217.5 37.5h105zM782 1396q156 0 297.5 -65.5t242.5 -184.5
q82 -96 126.5 -216t44.5 -247q0 -157 -65.5 -299t-183.5 -244q-97 -82 -216.5 -126.5t-245.5 -44.5q-156 0 -298.5 65.5t-243.5 183.5q-83 97 -127.5 217t-44.5 248q0 126 45 248.5t126 215.5q103 118 245.5 183.5t297.5 65.5zM782 1263q-210 0 -370 -138
q-96 -82 -148.5 -198t-52.5 -244t52.5 -244t148.5 -198q77 -67 173 -103t197 -36t196 36t173 103q95 83 147 198.5t52 243.5t-52 243.5t-148 197.5q-161 139 -368 139z" />
    <glyph glyph-name="ordfeminine" unicode="&#xaa;" horiz-adv-x="819" 
d="M735 710v-133h-651v133h651zM631 1365v-133h-160q-46 0 -73.5 -9t-49.5 -30q-43 -43 -43 -101t43 -98q41 -40 119 -40v204h164v-338h-185q-89 0 -149 25.5t-106 82.5q-57 72 -57 163q0 64 28.5 122.5t79.5 96.5q75 55 197 55h192z" />
    <glyph glyph-name="guillemotleft" unicode="&#xab;" horiz-adv-x="1271" 
d="M723 1069l-267 -424l267 -414h-388l-267 414l267 424h388zM1188 1069l-268 -424l268 -414h-388l-268 414l268 424h388z" />
    <glyph glyph-name="logicalnot" unicode="&#xac;" horiz-adv-x="887" 
d="M566 0v312h-566v287h887v-599h-321z" />
    <glyph glyph-name="registered" unicode="&#xae;" horiz-adv-x="1562" 
d="M491 1065h280q103 0 158.5 -16t92.5 -57q49 -54 49 -133q0 -73 -37 -121t-106 -66q107 -30 107 -164v-208h-229v186q0 57 -26 78t-97 21h-192v191h264q29 0 43.5 4t22.5 13q11 14 11 32q0 26 -16 37.5t-52 11.5h-273v191zM782 1396q156 0 297.5 -65.5t242.5 -184.5
q82 -96 126.5 -216t44.5 -247q0 -157 -65.5 -299t-183.5 -244q-97 -82 -216.5 -126.5t-245.5 -44.5q-156 0 -298.5 65.5t-243.5 183.5q-83 97 -127.5 217t-44.5 248q0 126 45 248.5t126 215.5q103 118 245.5 183.5t297.5 65.5zM782 1263q-210 0 -370 -138
q-96 -82 -148.5 -198t-52.5 -244t52.5 -244t148.5 -198q77 -67 173 -103t197 -36t196 36t173 103q95 83 147 198.5t52 243.5t-52 243.5t-148 197.5q-161 139 -368 139z" />
    <glyph glyph-name="degree" unicode="&#xb0;" horiz-adv-x="762" 
d="M381 1366q68 0 130.5 -28.5t106.5 -80.5q75 -88 75 -203t-75 -203q-44 -52 -106.5 -80.5t-130.5 -28.5q-69 0 -131.5 28.5t-106.5 80.5q-75 88 -75 203q0 55 19.5 108.5t55.5 94.5q45 52 107 80.5t131 28.5zM381 1182q-54 0 -91.5 -37.5t-37.5 -90.5t37.5 -90.5
t91.5 -37.5q53 0 90.5 37.5t37.5 90.5t-37.5 90.5t-90.5 37.5z" />
    <glyph glyph-name="plusminus" unicode="&#xb1;" 
d="M155 1020h282v298h355v-298h282v-324h-282v-297h-355v297h-282v324zM155 324h919v-324h-919v324z" />
    <glyph glyph-name="twosuperior" unicode="&#xb2;" horiz-adv-x="809" 
d="M99 1365h287q93 0 152 -19t103 -64q71 -72 71 -175q0 -98 -67 -169q-46 -49 -104 -68.5t-156 -19.5h-286q-1 28 -1 43q0 65 34 105q24 30 59.5 43.5t90.5 13.5h98q76 0 76 52q0 28 -21 40.5t-68 12.5h-268v205zM679 753v-205h-580v205h580z" />
    <glyph glyph-name="threesuperior" unicode="&#xb3;" horiz-adv-x="808" 
d="M310 1055h90q142 0 226.5 -67t84.5 -180q0 -97 -60 -167q-41 -48 -100 -70.5t-144 -22.5h-310v205h282q29 0 41.5 2.5t20.5 10.5q14 14 14 35q0 26 -21 37.5t-69 11.5h-204zM701 1365l-155 -205h-449v205h604z" />
    <glyph glyph-name="acute" unicode="&#xb4;" horiz-adv-x="1024" 
d="M779 1748l-160 -287h-265l108 287h317z" />
    <glyph glyph-name="mu" unicode="&#xb5;" horiz-adv-x="908" 
d="M0 -350v1333h266v-509q0 -75 7 -111.5t27 -68.5q57 -89 157 -89q50 0 90.5 25.5t59.5 69.5t27 84t8 97v502h266v-983h-266v131q-17 -42 -31.5 -65t-37.5 -41q-53 -45 -124 -45q-66 0 -117 38q-33 25 -66 82v-450h-266z" />
    <glyph glyph-name="paragraph" unicode="&#xb6;" 
d="M453 -150v907h-22q-82 0 -160.5 26.5t-129.5 72.5q-102 91 -102 264q0 104 36.5 177t112.5 121q114 70 345 70h657v-253h-155v-1385h-215v1385h-152v-1385h-215z" />
    <glyph glyph-name="cedilla" unicode="&#xb8;" horiz-adv-x="1024" 
d="M725 -95l-160 -287h-265l108 287h317z" />
    <glyph glyph-name="onesuperior" unicode="&#xb9;" horiz-adv-x="810" 
d="M579 1365v-819h-249v612h-158l162 207h245z" />
    <glyph glyph-name="ordmasculine" unicode="&#xba;" horiz-adv-x="819" 
d="M735 710v-133h-651v133h651zM409 1376q66 0 126 -24t100 -67q71 -77 71 -190q0 -127 -81.5 -207t-210.5 -80q-132 0 -216.5 79.5t-84.5 202.5t84 204.5t212 81.5zM409 1243q-59 0 -92 -39.5t-33 -110.5t33.5 -111.5t93.5 -40.5q58 0 91 40t33 111q0 70 -34 110.5
t-92 40.5z" />
    <glyph glyph-name="guillemotright" unicode="&#xbb;" horiz-adv-x="1271" 
d="M546 1069h388l268 -424l-268 -414h-388l268 414zM82 1069h388l267 -424l-267 -414h-388l268 414z" />
    <glyph glyph-name="onequarter" unicode="&#xbc;" horiz-adv-x="1972" 
d="M579 1365v-819h-249v612h-158l162 207h245zM1065 1365h255l-400 -1365h-254zM1776 819l-163 -312h279v-205h-661l275 517h270zM1820 205v-205h-321v205h321z" />
    <glyph glyph-name="onehalf" unicode="&#xbd;" horiz-adv-x="1973" 
d="M579 1365v-819h-249v612h-158l162 207h245zM1065 1365h255l-400 -1365h-254zM1262 819h287q93 0 152 -19t103 -64q71 -72 71 -176q0 -99 -67 -170q-46 -49 -104 -68.5t-156 -19.5h-286q-1 28 -1 43q0 65 34 105q24 31 59.5 44t90.5 13h98q76 0 76 53q0 29 -21 41.5
t-68 12.5h-268v205zM1841 205v-205h-579v205h579z" />
    <glyph glyph-name="threequarters" unicode="&#xbe;" horiz-adv-x="1972" 
d="M310 1055h90q142 0 226.5 -67t84.5 -180q0 -97 -60 -167q-41 -48 -100 -70.5t-144 -22.5h-310v205h282q29 0 41.5 2.5t20.5 10.5q14 14 14 35q0 26 -21 37.5t-69 11.5h-204zM701 1365l-155 -205h-449v205h604zM1065 1365h255l-400 -1365h-254zM1776 819l-163 -312h279
v-205h-661l275 517h270zM1820 205v-205h-321v205h321z" />
    <glyph glyph-name="questiondown" unicode="&#xbf;" horiz-adv-x="976" 
d="M301 853h345l-166 -367q-23 -51 -23 -76q0 -37 28 -61q14 -12 37.5 -16.5t71.5 -4.5h238v-328h-294q-127 0 -215.5 33.5t-145.5 102.5q-75 92 -75 209q0 47 13 93.5t44 112.5zM316 1041v324h321v-324h-321z" />
    <glyph glyph-name="Agrave" unicode="&#xc0;" 
d="M830 1365l427 -1365h-1284l277 840h340l-146 -516h351l-370 1041h405zM348 1748h317l108 -287h-265z" />
    <glyph glyph-name="Agrave" unicode="&#xe0;" 
d="M830 1365l427 -1365h-1284l277 840h340l-146 -516h351l-370 1041h405zM348 1748h317l108 -287h-265z" />
    <glyph glyph-name="Aacute" unicode="&#xc1;" 
d="M830 1365l427 -1365h-1284l277 840h340l-146 -516h351l-370 1041h405zM882 1748l-160 -287h-265l108 287h317z" />
    <glyph glyph-name="Aacute" unicode="&#xe1;" 
d="M830 1365l427 -1365h-1284l277 840h340l-146 -516h351l-370 1041h405zM882 1748l-160 -287h-265l108 287h317z" />
    <glyph glyph-name="Acircumflex" unicode="&#xc2;" 
d="M830 1365l427 -1365h-1284l277 840h340l-146 -516h351l-370 1041h405zM746 1746l181 -287h-245l-68 113l-60 -113h-251l177 287h266z" />
    <glyph glyph-name="Acircumflex" unicode="&#xe2;" 
d="M830 1365l427 -1365h-1284l277 840h340l-146 -516h351l-370 1041h405zM746 1746l181 -287h-245l-68 113l-60 -113h-251l177 287h266z" />
    <glyph glyph-name="Atilde" unicode="&#xc3;" 
d="M830 1365l427 -1365h-1284l277 840h340l-146 -516h351l-370 1041h405zM366 1684q37 27 69 38.5t73 11.5q29 0 54 -6t86 -28q75 -26 108 -26q60 0 108 57v-225q-59 -44 -131 -44q-49 0 -114 24l-61 21q-41 15 -76 15q-37 0 -61 -12.5t-55 -47.5v222z" />
    <glyph glyph-name="Atilde" unicode="&#xe3;" 
d="M830 1365l427 -1365h-1284l277 840h340l-146 -516h351l-370 1041h405zM366 1684q37 27 69 38.5t73 11.5q29 0 54 -6t86 -28q75 -26 108 -26q60 0 108 57v-225q-59 -44 -131 -44q-49 0 -114 24l-61 21q-41 15 -76 15q-37 0 -61 -12.5t-55 -47.5v222z" />
    <glyph glyph-name="Adieresis" unicode="&#xc4;" 
d="M830 1365l427 -1365h-1284l277 840h340l-146 -516h351l-370 1041h405zM915 1746v-287h-266v287h266zM581 1746v-287h-266v287h266z" />
    <glyph glyph-name="Adieresis" unicode="&#xe4;" 
d="M830 1365l427 -1365h-1284l277 840h340l-146 -516h351l-370 1041h405zM915 1746v-287h-266v287h266zM581 1746v-287h-266v287h266z" />
    <glyph glyph-name="Aring" unicode="&#xc5;" 
d="M830 1365l427 -1365h-1284l277 840h340l-146 -516h351l-370 1041h405zM615 1849q86 0 147 -60.5t61 -146.5t-61 -147t-147 -61t-147 61t-61 147t61 146.5t147 60.5zM615 1702q-27 0 -46 -18t-19 -42q0 -26 19 -43.5t46 -17.5t46 17.5t19 43.5q0 25 -19 42.5t-46 17.5z
" />
    <glyph glyph-name="Aring" unicode="&#xe5;" 
d="M830 1365l427 -1365h-1284l277 840h340l-146 -516h351l-370 1041h405zM615 1849q86 0 147 -60.5t61 -146.5t-61 -147t-147 -61t-147 61t-61 147t61 146.5t147 60.5zM615 1702q-27 0 -46 -18t-19 -42q0 -26 19 -43.5t46 -17.5t46 17.5t19 43.5q0 25 -19 42.5t-46 17.5z
" />
    <glyph glyph-name="AE" unicode="&#xc6;" horiz-adv-x="1880" 
d="M488 1365h1236v-324h-1124zM317 841h336l-142 -517h352l-189 517h1050v-324h-564l60 -193h504v-324h-1683z" />
    <glyph glyph-name="AE" unicode="&#xe6;" horiz-adv-x="1880" 
d="M488 1365h1236v-324h-1124zM317 841h336l-142 -517h352l-189 517h1050v-324h-564l60 -193h504v-324h-1683z" />
    <glyph glyph-name="Ccedilla" unicode="&#xc7;" horiz-adv-x="1011" 
d="M970 1365v-324h-138q-110 0 -183 -30t-127 -97q-81 -100 -81 -234q0 -126 78 -223q57 -72 132.5 -102.5t196.5 -30.5h122v-324h-184q-209 0 -358.5 69t-248.5 211q-60 86 -92 189t-32 209q0 107 33 213.5t94 193.5q62 89 147 152t181 91q127 37 290 37h170zM773 -95
l-161 -287h-264l108 287h317z" />
    <glyph glyph-name="Ccedilla" unicode="&#xe7;" horiz-adv-x="1011" 
d="M970 1365v-324h-138q-110 0 -183 -30t-127 -97q-81 -100 -81 -234q0 -126 78 -223q57 -72 132.5 -102.5t196.5 -30.5h122v-324h-184q-209 0 -358.5 69t-248.5 211q-60 86 -92 189t-32 209q0 107 33 213.5t94 193.5q62 89 147 152t181 91q127 37 290 37h170zM773 -95
l-161 -287h-264l108 287h317z" />
    <glyph glyph-name="Egrave" unicode="&#xc8;" horiz-adv-x="1083" 
d="M1001 840v-324h-547v-192h547v-324h-919v840h919zM1001 1365v-324h-919v324h919zM274 1748h317l108 -287h-264z" />
    <glyph glyph-name="Egrave" unicode="&#xe8;" horiz-adv-x="1083" 
d="M1001 840v-324h-547v-192h547v-324h-919v840h919zM1001 1365v-324h-919v324h919zM274 1748h317l108 -287h-264z" />
    <glyph glyph-name="Eacute" unicode="&#xc9;" horiz-adv-x="1083" 
d="M1001 840v-324h-547v-192h547v-324h-919v840h919zM1001 1365v-324h-919v324h919zM809 1748l-161 -287h-264l108 287h317z" />
    <glyph glyph-name="Eacute" unicode="&#xe9;" horiz-adv-x="1083" 
d="M1001 840v-324h-547v-192h547v-324h-919v840h919zM1001 1365v-324h-919v324h919zM809 1748l-161 -287h-264l108 287h317z" />
    <glyph glyph-name="Ecircumflex" unicode="&#xca;" horiz-adv-x="1083" 
d="M1001 840v-324h-547v-192h547v-324h-919v840h919zM1001 1365v-324h-919v324h919zM673 1746l181 -287h-246l-68 113l-59 -113h-252l178 287h266z" />
    <glyph glyph-name="Ecircumflex" unicode="&#xea;" horiz-adv-x="1083" 
d="M1001 840v-324h-547v-192h547v-324h-919v840h919zM1001 1365v-324h-919v324h919zM673 1746l181 -287h-246l-68 113l-59 -113h-252l178 287h266z" />
    <glyph glyph-name="Edieresis" unicode="&#xcb;" horiz-adv-x="1083" 
d="M1001 840v-324h-547v-192h547v-324h-919v840h919zM1001 1365v-324h-919v324h919zM841 1746v-287h-266v287h266zM508 1746v-287h-266v287h266z" />
    <glyph glyph-name="Edieresis" unicode="&#xeb;" horiz-adv-x="1083" 
d="M1001 840v-324h-547v-192h547v-324h-919v840h919zM1001 1365v-324h-919v324h919zM841 1746v-287h-266v287h266zM508 1746v-287h-266v287h266z" />
    <glyph glyph-name="Igrave" unicode="&#xcc;" horiz-adv-x="535" 
d="M454 840v-840h-372v840h372zM454 1365v-324h-372v324h372zM3 1748h317l108 -287h-265z" />
    <glyph glyph-name="Igrave" unicode="&#xec;" horiz-adv-x="535" 
d="M454 840v-840h-372v840h372zM454 1365v-324h-372v324h372zM3 1748h317l108 -287h-265z" />
    <glyph glyph-name="Iacute" unicode="&#xcd;" horiz-adv-x="539" 
d="M454 840v-840h-372v840h372zM454 1365v-324h-372v324h372zM537 1748l-160 -287h-265l108 287h317z" />
    <glyph glyph-name="Iacute" unicode="&#xed;" horiz-adv-x="539" 
d="M454 840v-840h-372v840h372zM454 1365v-324h-372v324h372zM537 1748l-160 -287h-265l108 287h317z" />
    <glyph glyph-name="Icircumflex" unicode="&#xce;" horiz-adv-x="539" 
d="M454 840v-840h-372v840h372zM454 1365v-324h-372v324h372zM401 1746l181 -287h-245l-68 113l-60 -113h-251l177 287h266z" />
    <glyph glyph-name="Icircumflex" unicode="&#xee;" horiz-adv-x="539" 
d="M454 840v-840h-372v840h372zM454 1365v-324h-372v324h372zM401 1746l181 -287h-245l-68 113l-60 -113h-251l177 287h266z" />
    <glyph glyph-name="Idieresis" unicode="&#xcf;" horiz-adv-x="540" 
d="M454 840v-840h-372v840h372zM454 1365v-324h-372v324h372zM542 1733v-253h-229v253h229zM226 1733v-253h-229v253h229z" />
    <glyph glyph-name="Idieresis" unicode="&#xef;" horiz-adv-x="540" 
d="M454 840v-840h-372v840h372zM454 1365v-324h-372v324h372zM542 1733v-253h-229v253h229zM226 1733v-253h-229v253h229z" />
    <glyph glyph-name="Eth" unicode="&#xd0;" horiz-adv-x="1338" 
d="M110 1365h452q146 0 262 -35.5t206 -107.5q120 -97 187 -240t67 -304q0 -230 -135 -409q-60 -81 -138 -139.5t-161 -86.5q-130 -43 -305 -43h-435v324h375q104 0 178.5 25t128.5 77q49 48 77.5 117t28.5 139q0 72 -28.5 141.5t-78.5 119.5q-54 54 -123.5 76t-182.5 22
h-375v324zM663 840v-324h-608v324h608z" />
    <glyph glyph-name="Eth" unicode="&#xf0;" horiz-adv-x="1338" 
d="M110 1365h452q146 0 262 -35.5t206 -107.5q120 -97 187 -240t67 -304q0 -230 -135 -409q-60 -81 -138 -139.5t-161 -86.5q-130 -43 -305 -43h-435v324h375q104 0 178.5 25t128.5 77q49 48 77.5 117t28.5 139q0 72 -28.5 141.5t-78.5 119.5q-54 54 -123.5 76t-182.5 22
h-375v324zM663 840v-324h-608v324h608z" />
    <glyph glyph-name="Ntilde" unicode="&#xd1;" horiz-adv-x="1239" 
d="M82 1365h592q129 0 226 -25q88 -23 156 -94q52 -53 76.5 -133t24.5 -194v-919h-372v901q0 70 -25 102q-31 38 -126 38h-180v-1041h-372v1365zM315 1684q37 27 69 38.5t73 11.5q29 0 54 -6t86 -28q75 -26 109 -26q58 0 107 57v-225q-59 -44 -131 -44q-49 0 -114 24l-60 21
q-41 15 -77 15q-37 0 -61.5 -12.5t-54.5 -47.5v222z" />
    <glyph glyph-name="Ntilde" unicode="&#xf1;" horiz-adv-x="1239" 
d="M82 1365h592q129 0 226 -25q88 -23 156 -94q52 -53 76.5 -133t24.5 -194v-919h-372v901q0 70 -25 102q-31 38 -126 38h-180v-1041h-372v1365zM315 1684q37 27 69 38.5t73 11.5q29 0 54 -6t86 -28q75 -26 109 -26q58 0 107 57v-225q-59 -44 -131 -44q-49 0 -114 24l-60 21
q-41 15 -77 15q-37 0 -61.5 -12.5t-54.5 -47.5v222z" />
    <glyph glyph-name="Ograve" unicode="&#xd2;" horiz-adv-x="1514" 
d="M755 1392q121 0 236.5 -37t206.5 -105q129 -96 195.5 -242t66.5 -332q0 -130 -40.5 -249t-116.5 -212q-97 -120 -232.5 -181t-303.5 -61t-306.5 59.5t-238.5 175.5q-167 194 -167 469q0 161 59.5 301.5t168.5 237.5q197 176 472 176zM756 1078q-148 0 -231.5 -104.5
t-83.5 -288.5q0 -99 27 -180.5t77 -134.5q80 -83 215 -83q147 0 230.5 105t83.5 291q0 182 -85.5 288.5t-232.5 106.5zM490 1748h317l108 -287h-264z" />
    <glyph glyph-name="Ograve" unicode="&#xf2;" horiz-adv-x="1514" 
d="M755 1392q121 0 236.5 -37t206.5 -105q129 -96 195.5 -242t66.5 -332q0 -130 -40.5 -249t-116.5 -212q-97 -120 -232.5 -181t-303.5 -61t-306.5 59.5t-238.5 175.5q-167 194 -167 469q0 161 59.5 301.5t168.5 237.5q197 176 472 176zM756 1078q-148 0 -231.5 -104.5
t-83.5 -288.5q0 -99 27 -180.5t77 -134.5q80 -83 215 -83q147 0 230.5 105t83.5 291q0 182 -85.5 288.5t-232.5 106.5zM490 1748h317l108 -287h-264z" />
    <glyph glyph-name="Oacute" unicode="&#xd3;" horiz-adv-x="1514" 
d="M755 1392q121 0 236.5 -37t206.5 -105q129 -96 195.5 -242t66.5 -332q0 -130 -40.5 -249t-116.5 -212q-97 -120 -232.5 -181t-303.5 -61t-306.5 59.5t-238.5 175.5q-167 194 -167 469q0 161 59.5 301.5t168.5 237.5q197 176 472 176zM756 1078q-148 0 -231.5 -104.5
t-83.5 -288.5q0 -99 27 -180.5t77 -134.5q80 -83 215 -83q147 0 230.5 105t83.5 291q0 182 -85.5 288.5t-232.5 106.5zM1024 1748l-161 -287h-264l108 287h317z" />
    <glyph glyph-name="Oacute" unicode="&#xf3;" horiz-adv-x="1514" 
d="M755 1392q121 0 236.5 -37t206.5 -105q129 -96 195.5 -242t66.5 -332q0 -130 -40.5 -249t-116.5 -212q-97 -120 -232.5 -181t-303.5 -61t-306.5 59.5t-238.5 175.5q-167 194 -167 469q0 161 59.5 301.5t168.5 237.5q197 176 472 176zM756 1078q-148 0 -231.5 -104.5
t-83.5 -288.5q0 -99 27 -180.5t77 -134.5q80 -83 215 -83q147 0 230.5 105t83.5 291q0 182 -85.5 288.5t-232.5 106.5zM1024 1748l-161 -287h-264l108 287h317z" />
    <glyph glyph-name="Ocircumflex" unicode="&#xd4;" horiz-adv-x="1514" 
d="M755 1392q121 0 236.5 -37t206.5 -105q129 -96 195.5 -242t66.5 -332q0 -130 -40.5 -249t-116.5 -212q-97 -120 -232.5 -181t-303.5 -61t-306.5 59.5t-238.5 175.5q-167 194 -167 469q0 161 59.5 301.5t168.5 237.5q197 176 472 176zM756 1078q-148 0 -231.5 -104.5
t-83.5 -288.5q0 -99 27 -180.5t77 -134.5q80 -83 215 -83q147 0 230.5 105t83.5 291q0 182 -85.5 288.5t-232.5 106.5zM889 1746l181 -287h-246l-67 113l-60 -113h-252l178 287h266z" />
    <glyph glyph-name="Ocircumflex" unicode="&#xf4;" horiz-adv-x="1514" 
d="M755 1392q121 0 236.5 -37t206.5 -105q129 -96 195.5 -242t66.5 -332q0 -130 -40.5 -249t-116.5 -212q-97 -120 -232.5 -181t-303.5 -61t-306.5 59.5t-238.5 175.5q-167 194 -167 469q0 161 59.5 301.5t168.5 237.5q197 176 472 176zM756 1078q-148 0 -231.5 -104.5
t-83.5 -288.5q0 -99 27 -180.5t77 -134.5q80 -83 215 -83q147 0 230.5 105t83.5 291q0 182 -85.5 288.5t-232.5 106.5zM889 1746l181 -287h-246l-67 113l-60 -113h-252l178 287h266z" />
    <glyph glyph-name="Otilde" unicode="&#xd5;" horiz-adv-x="1514" 
d="M755 1392q121 0 236.5 -37t206.5 -105q129 -96 195.5 -242t66.5 -332q0 -130 -40.5 -249t-116.5 -212q-97 -120 -232.5 -181t-303.5 -61t-306.5 59.5t-238.5 175.5q-167 194 -167 469q0 161 59.5 301.5t168.5 237.5q197 176 472 176zM756 1078q-148 0 -231.5 -104.5
t-83.5 -288.5q0 -99 27 -180.5t77 -134.5q80 -83 215 -83q147 0 230.5 105t83.5 291q0 182 -85.5 288.5t-232.5 106.5zM508 1684q38 27 69.5 38.5t72.5 11.5q29 0 54 -6t86 -28q74 -26 109 -26q58 0 107 57v-225q-59 -44 -131 -44q-49 0 -114 24l-60 21q-42 15 -77 15
q-37 0 -61 -12.5t-55 -47.5v222z" />
    <glyph glyph-name="Otilde" unicode="&#xf5;" horiz-adv-x="1514" 
d="M755 1392q121 0 236.5 -37t206.5 -105q129 -96 195.5 -242t66.5 -332q0 -130 -40.5 -249t-116.5 -212q-97 -120 -232.5 -181t-303.5 -61t-306.5 59.5t-238.5 175.5q-167 194 -167 469q0 161 59.5 301.5t168.5 237.5q197 176 472 176zM756 1078q-148 0 -231.5 -104.5
t-83.5 -288.5q0 -99 27 -180.5t77 -134.5q80 -83 215 -83q147 0 230.5 105t83.5 291q0 182 -85.5 288.5t-232.5 106.5zM508 1684q38 27 69.5 38.5t72.5 11.5q29 0 54 -6t86 -28q74 -26 109 -26q58 0 107 57v-225q-59 -44 -131 -44q-49 0 -114 24l-60 21q-42 15 -77 15
q-37 0 -61 -12.5t-55 -47.5v222z" />
    <glyph glyph-name="Odieresis" unicode="&#xd6;" horiz-adv-x="1514" 
d="M755 1392q121 0 236.5 -37t206.5 -105q129 -96 195.5 -242t66.5 -332q0 -130 -40.5 -249t-116.5 -212q-97 -120 -232.5 -181t-303.5 -61t-306.5 59.5t-238.5 175.5q-167 194 -167 469q0 161 59.5 301.5t168.5 237.5q197 176 472 176zM756 1078q-148 0 -231.5 -104.5
t-83.5 -288.5q0 -99 27 -180.5t77 -134.5q80 -83 215 -83q147 0 230.5 105t83.5 291q0 182 -85.5 288.5t-232.5 106.5zM1057 1746v-287h-266v287h266zM724 1746v-287h-266v287h266z" />
    <glyph glyph-name="Odieresis" unicode="&#xf6;" horiz-adv-x="1514" 
d="M755 1392q121 0 236.5 -37t206.5 -105q129 -96 195.5 -242t66.5 -332q0 -130 -40.5 -249t-116.5 -212q-97 -120 -232.5 -181t-303.5 -61t-306.5 59.5t-238.5 175.5q-167 194 -167 469q0 161 59.5 301.5t168.5 237.5q197 176 472 176zM756 1078q-148 0 -231.5 -104.5
t-83.5 -288.5q0 -99 27 -180.5t77 -134.5q80 -83 215 -83q147 0 230.5 105t83.5 291q0 182 -85.5 288.5t-232.5 106.5zM1057 1746v-287h-266v287h266zM724 1746v-287h-266v287h266z" />
    <glyph glyph-name="multiply" unicode="&#xd7;" 
d="M377 1159l238 -237l237 237l242 -241l-238 -237l238 -238l-242 -241l-237 238l-238 -238l-241 241l238 238l-238 237z" />
    <glyph glyph-name="Oslash" unicode="&#xd8;" horiz-adv-x="1649" 
d="M1196 1440l240 -177l-79 -110q41 -51 61.5 -84t39.5 -80q62 -148 62 -316q0 -277 -161 -469q-98 -116 -234 -175t-306 -59q-94 0 -161 15.5t-171 61.5l-77 -108l-242 174l89 126q-64 95 -93 169q-48 123 -48 267q0 171 66 318.5t187 245.5q91 74 205.5 112.5t241.5 38.5
q81 0 147 -13.5t153 -47.5zM815 1076q-60 0 -114.5 -21t-94.5 -59q-49 -47 -76.5 -128.5t-27.5 -181.5q0 -95 25 -176t71 -133q82 -93 224 -93q132 0 213 85q51 53 75 125t24 174q0 195 -84 299q-43 52 -104 80.5t-131 28.5z" />
    <glyph glyph-name="Oslash" unicode="&#xf8;" horiz-adv-x="1649" 
d="M1196 1440l240 -177l-79 -110q41 -51 61.5 -84t39.5 -80q62 -148 62 -316q0 -277 -161 -469q-98 -116 -234 -175t-306 -59q-94 0 -161 15.5t-171 61.5l-77 -108l-242 174l89 126q-64 95 -93 169q-48 123 -48 267q0 171 66 318.5t187 245.5q91 74 205.5 112.5t241.5 38.5
q81 0 147 -13.5t153 -47.5zM815 1076q-60 0 -114.5 -21t-94.5 -59q-49 -47 -76.5 -128.5t-27.5 -181.5q0 -95 25 -176t71 -133q82 -93 224 -93q132 0 213 85q51 53 75 125t24 174q0 195 -84 299q-43 52 -104 80.5t-131 28.5z" />
    <glyph glyph-name="Ugrave" unicode="&#xd9;" horiz-adv-x="1240" 
d="M1158 1365v-1365h-640q-123 0 -209 28q-57 19 -106.5 64.5t-78.5 107.5q-42 86 -42 254v911h372v-868q0 -66 8 -96.5t30 -49.5q17 -15 45 -21t76 -6h173v1041h372zM353 1748h317l108 -287h-265z" />
    <glyph glyph-name="Ugrave" unicode="&#xf9;" horiz-adv-x="1240" 
d="M1158 1365v-1365h-640q-123 0 -209 28q-57 19 -106.5 64.5t-78.5 107.5q-42 86 -42 254v911h372v-868q0 -66 8 -96.5t30 -49.5q17 -15 45 -21t76 -6h173v1041h372zM353 1748h317l108 -287h-265z" />
    <glyph glyph-name="Uacute" unicode="&#xda;" horiz-adv-x="1240" 
d="M1158 1365v-1365h-640q-123 0 -209 28q-57 19 -106.5 64.5t-78.5 107.5q-42 86 -42 254v911h372v-868q0 -66 8 -96.5t30 -49.5q17 -15 45 -21t76 -6h173v1041h372zM887 1748l-160 -287h-265l108 287h317z" />
    <glyph glyph-name="Uacute" unicode="&#xfa;" horiz-adv-x="1240" 
d="M1158 1365v-1365h-640q-123 0 -209 28q-57 19 -106.5 64.5t-78.5 107.5q-42 86 -42 254v911h372v-868q0 -66 8 -96.5t30 -49.5q17 -15 45 -21t76 -6h173v1041h372zM887 1748l-160 -287h-265l108 287h317z" />
    <glyph glyph-name="Ucircumflex" unicode="&#xdb;" horiz-adv-x="1240" 
d="M1158 1365v-1365h-640q-123 0 -209 28q-57 19 -106.5 64.5t-78.5 107.5q-42 86 -42 254v911h372v-868q0 -66 8 -96.5t30 -49.5q17 -15 45 -21t76 -6h173v1041h372zM751 1746l181 -287h-245l-68 113l-60 -113h-251l177 287h266z" />
    <glyph glyph-name="Ucircumflex" unicode="&#xfb;" horiz-adv-x="1240" 
d="M1158 1365v-1365h-640q-123 0 -209 28q-57 19 -106.5 64.5t-78.5 107.5q-42 86 -42 254v911h372v-868q0 -66 8 -96.5t30 -49.5q17 -15 45 -21t76 -6h173v1041h372zM751 1746l181 -287h-245l-68 113l-60 -113h-251l177 287h266z" />
    <glyph glyph-name="Udieresis" unicode="&#xdc;" horiz-adv-x="1240" 
d="M1158 1365v-1365h-640q-123 0 -209 28q-57 19 -106.5 64.5t-78.5 107.5q-42 86 -42 254v911h372v-868q0 -66 8 -96.5t30 -49.5q17 -15 45 -21t76 -6h173v1041h372zM920 1746v-287h-266v287h266zM586 1746v-287h-266v287h266z" />
    <glyph glyph-name="Udieresis" unicode="&#xfc;" horiz-adv-x="1240" 
d="M1158 1365v-1365h-640q-123 0 -209 28q-57 19 -106.5 64.5t-78.5 107.5q-42 86 -42 254v911h372v-868q0 -66 8 -96.5t30 -49.5q17 -15 45 -21t76 -6h173v1041h372zM920 1746v-287h-266v287h266zM586 1746v-287h-266v287h266z" />
    <glyph glyph-name="Yacute" unicode="&#xdd;" horiz-adv-x="1167" 
d="M1126 1365v-237q0 -139 -18 -238q-12 -72 -50.5 -142.5t-95.5 -123.5q-142 -136 -380 -136q-229 0 -373 129q-60 54 -99.5 124t-52.5 146q-16 91 -16 210v268h372v-340q0 -67 13 -108t43 -66q46 -39 113 -39q68 0 113 37q59 49 59 188v328h372zM890 324v-324h-624v324
h624zM851 1748l-161 -287h-264l108 287h317z" />
    <glyph glyph-name="Yacute" unicode="&#xfd;" horiz-adv-x="1167" 
d="M1126 1365v-237q0 -139 -18 -238q-12 -72 -50.5 -142.5t-95.5 -123.5q-142 -136 -380 -136q-229 0 -373 129q-60 54 -99.5 124t-52.5 146q-16 91 -16 210v268h372v-340q0 -67 13 -108t43 -66q46 -39 113 -39q68 0 113 37q59 49 59 188v328h372zM890 324v-324h-624v324
h624zM851 1748l-161 -287h-264l108 287h317z" />
    <glyph glyph-name="Thorn" unicode="&#xde;" horiz-adv-x="1097" 
d="M82 1365h372v-164h90q148 0 238 -29t157 -99q55 -58 86 -137t31 -164q0 -84 -30 -160.5t-86 -135.5q-68 -70 -150.5 -99t-215.5 -29h-120v-348h-372v672h422q52 0 81 5.5t46 17.5q39 29 39 81q0 54 -37.5 77.5t-125.5 23.5h-425v488z" />
    <glyph glyph-name="Thorn" unicode="&#xfe;" horiz-adv-x="1097" 
d="M82 1365h372v-164h90q148 0 238 -29t157 -99q55 -58 86 -137t31 -164q0 -84 -30 -160.5t-86 -135.5q-68 -70 -150.5 -99t-215.5 -29h-120v-348h-372v672h422q52 0 81 5.5t46 17.5q39 29 39 81q0 54 -37.5 77.5t-125.5 23.5h-425v488z" />
    <glyph glyph-name="divide" unicode="&#xf7;" 
d="M614 1313q41 0 80 -17t66 -47q53 -57 53 -135q0 -82 -58.5 -140.5t-140.5 -58.5t-140.5 58.5t-58.5 140.5q0 78 52 135q59 64 147 64zM614 447q83 0 141 -58t58 -141q0 -82 -58.5 -140.5t-140.5 -58.5t-140.5 58.5t-58.5 140.5q0 83 58 141t141 58zM155 843h919v-324
h-919v324z" />
    <glyph glyph-name="Ydieresis" unicode="&#xff;" horiz-adv-x="1167" 
d="M1126 1365v-237q0 -139 -18 -238q-12 -72 -50.5 -142.5t-95.5 -123.5q-142 -136 -380 -136q-229 0 -373 129q-60 54 -99.5 124t-52.5 146q-16 91 -16 210v268h372v-340q0 -67 13 -108t43 -66q46 -39 113 -39q68 0 113 37q59 49 59 188v328h372zM890 324v-324h-624v324
h624zM883 1746v-287h-266v287h266zM550 1746v-287h-266v287h266z" />
    <glyph glyph-name="Ydieresis" unicode="&#x178;" horiz-adv-x="1167" 
d="M1126 1365v-237q0 -139 -18 -238q-12 -72 -50.5 -142.5t-95.5 -123.5q-142 -136 -380 -136q-229 0 -373 129q-60 54 -99.5 124t-52.5 146q-16 91 -16 210v268h372v-340q0 -67 13 -108t43 -66q46 -39 113 -39q68 0 113 37q59 49 59 188v328h372zM890 324v-324h-624v324
h624zM883 1746v-287h-266v287h266zM550 1746v-287h-266v287h266z" />
    <glyph glyph-name="a" unicode="&#x100;" 
d="M830 1365l427 -1365h-1284l277 840h340l-146 -516h351l-370 1041h405z" />
    <glyph glyph-name="b" unicode="&#x101;" horiz-adv-x="1118" 
d="M82 1365h451q122 0 201 -7q121 -10 206 -77q57 -46 89 -119.5t32 -158.5q0 -104 -44 -182q-23 -41 -55.5 -70.5t-91.5 -60.5q47 -19 75 -37t54 -48q78 -88 78 -226q0 -75 -27 -146t-75 -120q-43 -44 -103.5 -72t-127.5 -34q-68 -7 -162 -7h-500v324h445q74 0 102 29
q28 30 28 74q0 42 -26 69q-27 27 -105 27h-444v324h445q50 0 79.5 8t45.5 27q23 27 23 66q0 47 -31.5 70t-95.5 23h-466v324z" />
    <glyph glyph-name="c" unicode="&#x102;" horiz-adv-x="1011" 
d="M970 1365v-324h-138q-110 0 -183 -30t-127 -97q-81 -100 -81 -234q0 -126 78 -223q57 -72 132.5 -102.5t196.5 -30.5h122v-324h-184q-209 0 -358.5 69t-248.5 211q-60 86 -92 189t-32 209q0 107 33 213.5t94 193.5q62 89 147 152t181 91q127 37 290 37h170z" />
    <glyph glyph-name="d" unicode="&#x103;" horiz-adv-x="1308" 
d="M82 1365h448q146 0 262 -35.5t206 -107.5q120 -96 187.5 -239.5t67.5 -303.5q0 -227 -135 -408q-60 -80 -138.5 -139.5t-161.5 -87.5q-128 -44 -304 -44h-432v840h372v-519q104 0 178.5 25t128.5 78q49 49 77.5 118.5t28.5 140.5q0 70 -29 140t-78 119
q-54 54 -123.5 76.5t-183.5 22.5h-371v324z" />
    <glyph glyph-name="e" unicode="&#x104;" horiz-adv-x="1083" 
d="M1001 840v-324h-547v-192h547v-324h-919v840h919zM1001 1365v-324h-919v324h919z" />
    <glyph glyph-name="f" unicode="&#x105;" horiz-adv-x="1045" 
d="M1004 840v-324h-550v-516h-372v840h922zM1004 1365v-324h-922v324h922z" />
    <glyph glyph-name="g" unicode="&#x106;" horiz-adv-x="1227" 
d="M1144 1365v-324h-305q-111 0 -185 -28t-126 -90q-42 -50 -65 -115.5t-23 -136.5q0 -91 37 -170.5t103 -132.5q102 -81 238 -81q102 0 185 52q39 25 68.5 55t72.5 90v-418q-93 -49 -182 -71t-194 -22q-147 0 -275.5 49.5t-226.5 143.5q-101 96 -156.5 230t-55.5 279
q0 123 40.5 236.5t116.5 205.5q63 75 142.5 129.5t161.5 78.5q142 40 345 40h284zM1144 840v-324h-413v324h413z" />
    <glyph glyph-name="h" unicode="&#x107;" horiz-adv-x="932" 
d="M454 1365v-525h465v-324h-465v-516h-372v1365h372z" />
    <glyph glyph-name="i" unicode="&#x108;" horiz-adv-x="536" 
d="M454 840v-840h-372v840h372zM454 1365v-324h-372v324h372z" />
    <glyph glyph-name="j" unicode="&#x109;" horiz-adv-x="732" 
d="M649 840v-316q0 -146 -15 -233q-9 -54 -39 -106.5t-75 -92.5q-104 -92 -272 -92h-265v328h166q62 0 94 32q19 20 26.5 48.5t7.5 82.5v349h372zM649 1365v-324h-372v324h372z" />
    <glyph glyph-name="k" unicode="&#x10a;" horiz-adv-x="933" 
d="M909 1365l-542 -650l579 -715h-482l-437 549v290l437 526h445z" />
    <glyph glyph-name="l" unicode="&#x10b;" horiz-adv-x="908" 
d="M454 1365v-1041h468v-324h-840v1365h372z" />
    <glyph glyph-name="m" unicode="&#x10c;" horiz-adv-x="1652" 
d="M82 1365h968q169 0 267 -24q95 -23 167 -112q46 -57 66 -135.5t20 -201.5v-892h-372v877q0 56 -7.5 84t-27.5 47q-19 18 -48.5 25.5t-77.5 7.5h-583v-1041h-372v1365zM999 840v-840h-345v840h345z" />
    <glyph glyph-name="n" unicode="&#x10d;" horiz-adv-x="1239" 
d="M82 1365h592q129 0 226 -25q88 -23 156 -94q52 -53 76.5 -133t24.5 -194v-919h-372v901q0 70 -25 102q-31 38 -126 38h-180v-1041h-372v1365z" />
    <glyph glyph-name="o" unicode="&#x10e;" horiz-adv-x="1514" 
d="M755 1392q121 0 236.5 -37t206.5 -105q129 -96 195.5 -242t66.5 -332q0 -130 -40.5 -249t-116.5 -212q-97 -120 -232.5 -181t-303.5 -61t-306.5 59.5t-238.5 175.5q-167 194 -167 469q0 161 59.5 301.5t168.5 237.5q197 176 472 176zM756 1078q-148 0 -231.5 -104.5
t-83.5 -288.5q0 -99 27 -180.5t77 -134.5q80 -83 215 -83q147 0 230.5 105t83.5 291q0 182 -85.5 288.5t-232.5 106.5z" />
    <glyph glyph-name="p" unicode="&#x10f;" horiz-adv-x="1097" 
d="M82 1365h462q148 0 238 -29t157 -99q55 -58 86 -137t31 -162t-30 -159t-86 -135q-68 -70 -150.5 -99t-215.5 -29h-120v-516h-372v840h422q52 0 81 5t46 18q39 28 39 79q0 53 -37.5 76t-125.5 23h-425v324z" />
    <glyph glyph-name="q" unicode="&#x110;" horiz-adv-x="1420" 
d="M755 340q122 140 166 214q38 64 55 117.5t17 108.5q0 126 -82.5 212t-203.5 86q-122 0 -206 -90q-39 -41 -60 -92.5t-21 -105.5q0 -75 43.5 -159t128.5 -173l438 -458h-505l-238 243q-174 177 -224 347q-22 77 -22 175q0 112 38.5 217.5t109.5 189.5q91 107 222.5 163.5
t291.5 56.5q163 0 299.5 -59.5t231.5 -171.5q69 -82 107 -183t38 -202q0 -155 -84 -293q-35 -58 -114 -143h-426z" />
    <glyph glyph-name="r" unicode="&#x111;" horiz-adv-x="1058" 
d="M41 1365h470q125 0 217 -15q60 -9 115 -39.5t93 -75.5t59.5 -106t21.5 -128q0 -129 -66 -217q-36 -49 -84.5 -76t-134.5 -46q70 -15 107.5 -36.5t65.5 -62.5q51 -74 51 -200v-363h-372v323q0 98 -37 140q-23 28 -68 40.5t-119 12.5h-319v324h443q54 0 81.5 8t42.5 27
q23 28 23 66q0 47 -30 75q-29 25 -102 25h-458v324z" />
    <glyph glyph-name="s" unicode="&#x112;" horiz-adv-x="952" 
d="M481 1365q-13 -56 -13 -87q0 -44 26 -91t92 -121q133 -152 184.5 -217.5t83.5 -123.5q38 -69 54.5 -128.5t16.5 -127.5q0 -85 -29 -165.5t-81 -141.5q-138 -162 -423 -162h-378v324h335q107 0 153 53q37 44 37 95q0 59 -42 121.5t-207 250.5q-76 88 -116.5 144.5
t-59.5 103.5q-32 79 -32 144q0 48 14 129h385z" />
    <glyph glyph-name="t" unicode="&#x113;" horiz-adv-x="977" 
d="M491 840v-340q0 -95 23 -129q18 -25 47 -34t90 -9h243v-328h-350q-108 0 -183.5 25.5t-129.5 80.5q-69 70 -90 158q-22 92 -22 217v359h372zM936 1365v-324h-881v324h881z" />
    <glyph glyph-name="u" unicode="&#x114;" horiz-adv-x="1240" 
d="M1158 1365v-1365h-640q-123 0 -209 28q-57 19 -106.5 64.5t-78.5 107.5q-42 86 -42 254v911h372v-868q0 -66 8 -96.5t30 -49.5q17 -15 45 -21t76 -6h173v1041h372z" />
    <glyph glyph-name="v" unicode="&#x115;" horiz-adv-x="1232" 
d="M1260 1359l-453 -1359h-407l-427 1365h396l171 -625q26 -96 68 -346q36 220 69 333l186 638z" />
    <glyph glyph-name="w" unicode="&#x116;" horiz-adv-x="1636" 
d="M1663 1365l-563 -1387l-429 1008l234 398l195 -576l176 557h387zM379 1365l411 -1010l-223 -377l-594 1387h406z" />
    <glyph glyph-name="x" unicode="&#x117;" horiz-adv-x="1211" 
d="M1170 1365v-328q-94 -5 -150.5 -24.5t-107.5 -64.5q-57 -50 -89.5 -122t-32.5 -148q0 -67 24.5 -130.5t69.5 -112.5q53 -58 123 -86t163 -28v-321h-57q-145 0 -244 37q-88 33 -148 88.5t-118 158.5q-33 -66 -62 -103.5t-70 -69.5q-61 -48 -146.5 -76.5t-177.5 -32.5
q-40 -2 -106 -2v321q47 0 86 5q64 9 122 44.5t99 90.5q70 95 70 214q0 69 -25 133.5t-69 112.5q-50 55 -112 80.5t-171 35.5v328h84q279 -7 419 -198q25 -34 59 -100q38 76 71.5 118.5t83.5 78.5q61 44 142 70.5t166 29.5q29 1 62 1h42z" />
    <glyph glyph-name="y" unicode="&#x118;" horiz-adv-x="1167" 
d="M1126 1365v-237q0 -139 -18 -238q-12 -72 -50.5 -142.5t-95.5 -123.5q-142 -136 -380 -136q-229 0 -373 129q-60 54 -99.5 124t-52.5 146q-16 91 -16 210v268h372v-340q0 -67 13 -108t43 -66q46 -39 113 -39q68 0 113 37q59 49 59 188v328h372zM890 324v-324h-624v324
h624z" />
    <glyph glyph-name="z" unicode="&#x119;" horiz-adv-x="1094" 
d="M821 840l-228 -516h450v-324h-1002l373 840h407zM1052 1365l-143 -324h-826v324h969z" />
    <glyph glyph-name="OE" unicode="&#x152;" horiz-adv-x="1971" 
d="M1889 1041h-1057q-110 0 -183 -30t-127 -97q-81 -100 -81 -231q0 -126 78 -224q58 -73 133.5 -104t195.5 -31h122v516h919v-324h-547v-192h547v-324h-1103q-208 0 -357 70t-250 215q-59 86 -91.5 189t-32.5 206q0 105 33.5 211.5t93.5 193.5q100 145 249 212.5t369 67.5
h1089v-324z" />
    <glyph glyph-name="OE" unicode="&#x153;" horiz-adv-x="1971" 
d="M1889 1041h-1057q-110 0 -183 -30t-127 -97q-81 -100 -81 -231q0 -126 78 -224q58 -73 133.5 -104t195.5 -31h122v516h919v-324h-547v-192h547v-324h-1103q-208 0 -357 70t-250 215q-59 86 -91.5 189t-32.5 206q0 105 33.5 211.5t93.5 193.5q100 145 249 212.5t369 67.5
h1089v-324z" />
    <glyph glyph-name="Scaron" unicode="&#x160;" horiz-adv-x="952" 
d="M481 1365q-13 -56 -13 -87q0 -44 26 -91t92 -121q133 -152 184.5 -217.5t83.5 -123.5q38 -69 54.5 -128.5t16.5 -127.5q0 -85 -29 -165.5t-81 -141.5q-138 -162 -423 -162h-378v324h335q107 0 153 53q37 44 37 95q0 59 -42 121.5t-207 250.5q-76 88 -116.5 144.5
t-59.5 103.5q-32 79 -32 144q0 48 14 129h385zM345 1459l-181 287h246l67 -113l60 113h251l-177 -287h-266z" />
    <glyph glyph-name="Scaron" unicode="&#x161;" horiz-adv-x="952" 
d="M481 1365q-13 -56 -13 -87q0 -44 26 -91t92 -121q133 -152 184.5 -217.5t83.5 -123.5q38 -69 54.5 -128.5t16.5 -127.5q0 -85 -29 -165.5t-81 -141.5q-138 -162 -423 -162h-378v324h335q107 0 153 53q37 44 37 95q0 59 -42 121.5t-207 250.5q-76 88 -116.5 144.5
t-59.5 103.5q-32 79 -32 144q0 48 14 129h385zM345 1459l-181 287h246l67 -113l60 113h251l-177 -287h-266z" />
    <glyph glyph-name="florin" unicode="&#x192;" horiz-adv-x="1231" 
d="M1190 1502v-324h-186q-49 0 -75 -9t-46 -32q-17 -21 -26 -53t-20 -108h268v-324h-331l-27 -140h-377l27 140h-208v324h272l21 111q26 140 51 201q39 96 152 157q57 31 127 44t179 13h199zM-41 -273v324h185q52 0 79 9t47 32q15 17 23.5 41.5t18.5 76.5l23 118h377
l-36 -186q-24 -123 -59.5 -197t-94.5 -122q-64 -52 -147 -74t-218 -22h-198z" />
    <glyph glyph-name="circumflex" unicode="&#x2c6;" horiz-adv-x="1024" 
d="M643 1746l181 -287h-245l-68 113l-60 -113h-251l177 287h266z" />
    <glyph glyph-name="caron" unicode="&#x2c7;" horiz-adv-x="1024" 
d="M381 1459l-181 287h245l68 -113l60 113h251l-177 -287h-266z" />
    <glyph glyph-name="macron" unicode="&#x2c9;" horiz-adv-x="1024" 
d="M798 1719v-229h-572v229h572z" />
    <glyph glyph-name="breve" unicode="&#x2d8;" horiz-adv-x="1024" 
d="M231 1741h168q22 -49 47.5 -69t65.5 -20t65.5 20t47.5 69h168q-14 -83 -34 -127t-59 -77q-82 -69 -188 -69t-188 69q-39 33 -59 77t-34 127z" />
    <glyph glyph-name="dotaccent" unicode="&#x2d9;" horiz-adv-x="1022" 
d="M644 1746v-287h-266v287h266z" />
    <glyph glyph-name="ring" unicode="&#x2da;" horiz-adv-x="1024" 
d="M511 1849q87 0 147.5 -60.5t60.5 -146.5t-61 -147t-147 -61q-85 0 -146 61t-61 147t60.5 146.5t146.5 60.5zM512 1702q-27 0 -46 -18t-19 -42q0 -26 19 -43.5t46 -17.5q26 0 45 17.5t19 43.5q0 24 -19 42t-45 18z" />
    <glyph glyph-name="ogonek" unicode="&#x2db;" horiz-adv-x="1024" 
d="M771 0h201q-129 -98 -129 -160q0 -21 18 -34.5t46 -13.5q29 0 93 16v-130q-91 -19 -144 -19q-49 0 -96 14.5t-79 39.5q-56 43 -56 111q0 56 50 108q28 30 96 68z" />
    <glyph glyph-name="tilde" unicode="&#x2dc;" horiz-adv-x="1024" 
d="M263 1684q37 27 69 38.5t73 11.5q29 0 54.5 -6t85.5 -28q74 -26 108 -26q60 0 108 57v-225q-58 -44 -131 -44q-49 0 -114 24l-60 21q-42 15 -77 15q-37 0 -61 -12.5t-55 -47.5v222z" />
    <glyph glyph-name="hungarumlaut" unicode="&#x2dd;" horiz-adv-x="1024" 
d="M567 1748l-160 -287h-224l108 287h276zM951 1748l-160 -287h-224l108 287h276z" />
    <glyph glyph-name="pi" unicode="&#x3c0;" horiz-adv-x="1205" 
d="M149 0v753h-149v229h1205v-229h-149v-753h-290v753h-327v-753h-290z" />
    <glyph glyph-name="endash" unicode="&#x2013;" horiz-adv-x="1243" 
d="M1161 771v-324h-1079v324h1079z" />
    <glyph glyph-name="emdash" unicode="&#x2014;" horiz-adv-x="1502" 
d="M1502 771v-324h-1502v324h1502z" />
    <glyph glyph-name="quoteleft" unicode="&#x2018;" horiz-adv-x="608" 
d="M143 887l164 478h158v-478h-322z" />
    <glyph glyph-name="quoteright" unicode="&#x2019;" horiz-adv-x="608" 
d="M465 1365l-164 -478h-158v478h322z" />
    <glyph glyph-name="quotesinglbase" unicode="&#x201a;" horiz-adv-x="608" 
d="M465 219l-164 -478h-158v478h322z" />
    <glyph glyph-name="quotedblleft" unicode="&#x201c;" horiz-adv-x="1080" 
d="M144 887l164 478h158v-478h-322zM615 887l164 478h158v-478h-322z" />
    <glyph glyph-name="quotedblright" unicode="&#x201d;" horiz-adv-x="1079" 
d="M465 1365l-164 -478h-158v478h322zM936 1365l-164 -478h-158v478h322z" />
    <glyph glyph-name="quotedblbase" unicode="&#x201e;" horiz-adv-x="1079" 
d="M465 219l-164 -478h-158v478h322zM936 219l-164 -478h-158v478h322z" />
    <glyph glyph-name="dagger" unicode="&#x2020;" 
d="M427 635v202h-205v324h205v327h372v-327h208v-324h-208v-202h-372zM427 -150v601h372v-601h-372z" />
    <glyph glyph-name="daggerdbl" unicode="&#x2021;" 
d="M799 837v-336h208v-324h-208v-327h-372v327h-205v324h205v336h-205v324h205v327h372v-327h208v-324h-208z" />
    <glyph glyph-name="bullet" unicode="&#x2022;" horiz-adv-x="568" 
d="M286 978q103 0 182 -68q48 -40 74 -96.5t26 -119.5q0 -62 -26 -118.5t-73 -97.5q-80 -68 -183 -68q-63 0 -119.5 25.5t-97.5 73.5q-69 80 -69 185q0 51 18 99.5t51 86.5q41 47 97.5 72.5t119.5 25.5z" />
    <glyph glyph-name="ellipsis" unicode="&#x2026;" horiz-adv-x="1824" 
d="M464 324v-324h-321v324h321zM1072 324v-324h-321v324h321zM1680 324v-324h-321v324h321z" />
    <glyph glyph-name="perthousand" unicode="&#x2030;" horiz-adv-x="2706" 
d="M385 1381q142 0 238 -93q117 -114 117 -322q0 -215 -119 -323q-93 -86 -238 -86q-164 0 -260 111t-96 300q0 192 96 302.5t262 110.5zM386 1197q-53 0 -78 -55t-25 -173q0 -117 25 -172.5t77 -55.5q51 0 75 53.5t24 168.5q0 119 -24.5 176.5t-73.5 57.5zM1023 1365h254
l-399 -1365h-255zM1505 808q142 0 238 -93q116 -114 116 -322q0 -215 -118 -323q-93 -86 -238 -86q-163 0 -259 111t-96 300q0 192 95.5 302.5t261.5 110.5zM1506 624q-53 0 -77.5 -55t-24.5 -173q0 -117 24.5 -172.5t76.5 -55.5q51 0 74.5 53.5t23.5 168.5q0 118 -24 176
t-73 58zM2324 808q142 0 238 -93q116 -114 116 -322q0 -192 -94.5 -300.5t-261.5 -108.5q-163 0 -259 111t-96 300q0 192 95.5 302.5t261.5 110.5zM2325 624q-53 0 -77.5 -55t-24.5 -173q0 -117 24.5 -172.5t76.5 -55.5q51 0 74.5 54t23.5 168q0 118 -24 176t-73 58z" />
    <glyph glyph-name="guilsinglleft" unicode="&#x2039;" horiz-adv-x="807" 
d="M723 1069l-267 -424l267 -414h-388l-267 414l267 424h388z" />
    <glyph glyph-name="guilsinglright" unicode="&#x203a;" horiz-adv-x="807" 
d="M82 1069h388l267 -424l-267 -414h-388l268 414z" />
    <glyph glyph-name="trademark" unicode="&#x2122;" horiz-adv-x="1525" 
d="M291 1076v-193q0 -55 16 -71.5t70 -16.5h147v-191h-209q-124 0 -186 59q-37 35 -52 82.5t-15 126.5v204h229zM551 1365v-191h-526v191h526zM607 1365h569q110 0 164 -16t92 -61q28 -32 40 -76t12 -113v-498h-229v490q0 50 -17.5 66.5t-69.5 16.5h-332v-573h-229v764z
M1153 1076v-478h-215v478h215z" />
    <glyph glyph-name="Omega" unicode="&#x2126;" horiz-adv-x="1267" 
d="M7 0v270h276q-64 40 -103 73.5t-74 78.5q-52 66 -79 152.5t-27 183.5q0 118 41 227.5t119 199.5q187 214 474 214q140 0 261 -54.5t212 -159.5q78 -89 119 -199t41 -229q0 -197 -105 -334q-34 -45 -73 -78.5t-105 -74.5h276v-270h-554v249q59 30 95.5 61.5t69.5 80.5
q46 71 67.5 145.5t21.5 164.5q0 203 -114 328q-91 100 -212 100t-212 -100q-115 -126 -115 -325q0 -206 105 -338q31 -39 64 -65t85 -52v-249h-554z" />
    <glyph glyph-name="partialdiff" unicode="&#x2202;" horiz-adv-x="954" 
d="M83 1119l36 240q218 -23 365.5 -84t257.5 -172q212 -216 212 -559q0 -131 -28.5 -226.5t-89.5 -169.5q-135 -165 -366 -165q-167 0 -287 89q-86 64 -134.5 164.5t-48.5 214.5q0 95 35.5 180.5t99.5 145.5q56 51 127.5 79t149.5 28q80 0 144 -23q42 -15 100 -64
q-59 102 -83 130q-65 72 -153 109q-94 40 -171 59q-59 14 -166 24zM480 659q-30 0 -64 -12.5t-60 -32.5q-36 -28 -58 -75t-22 -97q0 -103 71 -168q57 -52 130 -52q68 0 125 47q76 63 76 173q0 52 -19 96.5t-53 73.5q-56 47 -126 47z" />
    <glyph glyph-name="Delta" unicode="&#x2206;" horiz-adv-x="1300" 
d="M0 0l487 1365h322l491 -1365h-1300zM395 270h502l-247 768z" />
    <glyph glyph-name="product" unicode="&#x220f;" horiz-adv-x="1292" 
d="M0 1536h1292v-253h-147v-1542h147v-253h-555v253h130v1542h-452v-1542h138v-253h-553v253h149v1542h-149v253z" />
    <glyph glyph-name="summation" unicode="&#x2211;" horiz-adv-x="1227" 
d="M1209 1536v-529h-280l-33 242h-548l494 -704l-491 -770h563l19 256h294v-543h-1227v331l475 725l-475 662v330h1209z" />
    <glyph glyph-name="fraction" unicode="&#x2215;" horiz-adv-x="356" 
d="M257 1365h255l-400 -1365h-254z" />
    <glyph glyph-name="periodcentered" unicode="&#x2219;" horiz-adv-x="690" 
d="M546 829v-403h-403v403h403z" />
    <glyph glyph-name="radical" unicode="&#x221a;" horiz-adv-x="1365" 
d="M1365 1693v-253h-339l-363 -1440h-362l-118 520h-183v253h359l54 -209q17 -63 38 -265l3 -28h18q7 60 20 138q26 156 45 244.5t62 257.5l199 782h567z" />
    <glyph glyph-name="infinity" unicode="&#x221e;" horiz-adv-x="1294" 
d="M652 555q-145 -184 -328 -184q-135 0 -226 84q-98 90 -98 243q0 152 103 241q93 81 222 81q61 0 113 -20t109 -64q53 -43 95 -99q68 91 151 137t179 46q68 0 130 -25t106 -71q86 -88 86 -230q0 -143 -91 -233.5t-236 -90.5q-88 0 -168.5 47.5t-146.5 137.5zM753 696
q91 -142 189 -142q59 0 96.5 41t37.5 105q0 57 -39.5 96.5t-95.5 39.5q-68 0 -131 -66q-11 -11 -34.5 -42t-22.5 -32zM541 695q-91 141 -189 141q-58 0 -96 -41t-38 -105q0 -56 39.5 -95.5t96.5 -39.5q67 0 130 66q11 11 34.5 41.5t22.5 32.5z" />
    <glyph glyph-name="integral" unicode="&#x222b;" horiz-adv-x="855" 
d="M0 -491l52 293q50 -17 85 -17q60 0 93 35q20 20 26 48.5t6 98.5v110v813v111q0 115 2 143q7 130 50 206q104 186 361 186q73 0 180 -21l-52 -293q-50 20 -90 20q-76 0 -105 -61q-9 -18 -12 -43.5t-3 -88.5v-907q0 -236 -2 -269q-9 -127 -53 -203q-105 -179 -371 -179
q-102 0 -167 18z" />
    <glyph glyph-name="approxequal" unicode="&#x2248;" horiz-adv-x="991" 
d="M159 713l-159 112q59 148 135 217t179 69q34 0 85.5 -15.5t139.5 -51.5q81 -34 104 -41.5t48 -7.5q51 0 89 34q18 16 53 66l158 -111q-34 -85 -62 -130.5t-68 -81.5q-78 -71 -191 -71q-65 0 -143 34l-84 37q-102 45 -149 45q-37 0 -67 -23t-68 -81zM159 257l-159 111
q59 148 135 217t179 69q34 0 86 -15.5t139 -51.5q80 -33 104 -40.5t49 -7.5q50 0 88 34q18 16 53 66l158 -112q-35 -84 -62.5 -129.5t-67.5 -81.5q-78 -71 -191 -71q-43 0 -83 12.5t-144 58.5q-102 44 -149 44q-37 0 -67 -22.5t-68 -80.5z" />
    <glyph glyph-name="notequal" unicode="&#x2260;" horiz-adv-x="888" 
d="M457 989l142 267l203 -110l-86 -157h172v-270h-283l-83 -159h365v-270h-465l-123 -229l-203 110l67 119h-163v270h263l84 159h-346v270h456z" />
    <glyph glyph-name="lessequal" unicode="&#x2264;" horiz-adv-x="887" 
d="M887 1333v-306l-530 -164l530 -163v-306l-887 333v274zM887 340v-287h-887v287h887z" />
    <glyph glyph-name="greaterequal" unicode="&#x2265;" horiz-adv-x="887" 
d="M1 394v306l529 163l-530 164v306l887 -332v-274zM0 53v287h887v-287h-887z" />
    <glyph glyph-name="lozenge" unicode="&#x25ca;" horiz-adv-x="1063" 
d="M532 1419l531 -736l-531 -736l-532 736zM532 1238l-404 -555l404 -554l403 554z" />
    <glyph glyph-name="glyph202" 
d="M915 1746v-287h-266v287h266zM581 1746v-287h-266v287h266z" />
    <glyph glyph-name="glyph203" 
d="M882 1748l-160 -287h-265l108 287h317z" />
    <glyph glyph-name="glyph204" 
d="M348 1748h317l108 -287h-265z" />
    <glyph glyph-name="glyph205" 
d="M746 1746l181 -287h-245l-68 113l-60 -113h-251l177 287h266z" />
    <glyph glyph-name="glyph206" 
d="M366 1684q37 27 69 38.5t73 11.5q29 0 54 -6t86 -28q75 -26 108 -26q60 0 108 57v-225q-59 -44 -131 -44q-49 0 -114 24l-61 21q-41 15 -76 15q-37 0 -61 -12.5t-55 -47.5v222z" />
    <glyph glyph-name="glyph207" 
d="M615 1849q86 0 147 -60.5t61 -146.5t-61 -147t-147 -61t-147 61t-61 147t61 146.5t147 60.5zM615 1702q-27 0 -46 -18t-19 -42q0 -26 19 -43.5t46 -17.5t46 17.5t19 43.5q0 25 -19 42.5t-46 17.5z" />
    <glyph glyph-name="glyph208" horiz-adv-x="1083" 
d="M841 1746v-287h-266v287h266zM508 1746v-287h-266v287h266z" />
    <glyph glyph-name="glyph209" horiz-adv-x="1083" 
d="M809 1748l-161 -287h-264l108 287h317z" />
    <glyph glyph-name="glyph210" horiz-adv-x="1083" 
d="M274 1748h317l108 -287h-264z" />
    <glyph glyph-name="glyph211" horiz-adv-x="1083" 
d="M673 1746l181 -287h-246l-68 113l-59 -113h-252l178 287h266z" />
    <glyph glyph-name="glyph212" horiz-adv-x="539" 
d="M542 1733v-253h-229v253h229zM226 1733v-253h-229v253h229z" />
    <glyph glyph-name="glyph213" horiz-adv-x="539" 
d="M537 1748l-160 -287h-265l108 287h317z" />
    <glyph glyph-name="glyph214" horiz-adv-x="539" 
d="M3 1748h317l108 -287h-265z" />
    <glyph glyph-name="glyph215" horiz-adv-x="539" 
d="M401 1746l181 -287h-245l-68 113l-60 -113h-251l177 287h266z" />
    <glyph glyph-name="glyph216" horiz-adv-x="1238" 
d="M315 1684q37 27 69 38.5t73 11.5q29 0 54 -6t86 -28q75 -26 109 -26q58 0 107 57v-225q-59 -44 -131 -44q-49 0 -114 24l-60 21q-41 15 -77 15q-37 0 -61.5 -12.5t-54.5 -47.5v222z" />
    <glyph glyph-name="glyph217" horiz-adv-x="1514" 
d="M1057 1746v-287h-266v287h266zM724 1746v-287h-266v287h266z" />
    <glyph glyph-name="glyph218" horiz-adv-x="1514" 
d="M1024 1748l-161 -287h-264l108 287h317z" />
    <glyph glyph-name="glyph219" horiz-adv-x="1514" 
d="M490 1748h317l108 -287h-264z" />
    <glyph glyph-name="glyph220" horiz-adv-x="1514" 
d="M889 1746l181 -287h-246l-67 113l-60 -113h-252l178 287h266z" />
    <glyph glyph-name="glyph221" horiz-adv-x="1514" 
d="M508 1684q38 27 69.5 38.5t72.5 11.5q29 0 54 -6t86 -28q74 -26 109 -26q58 0 107 57v-225q-59 -44 -131 -44q-49 0 -114 24l-60 21q-42 15 -77 15q-37 0 -61 -12.5t-55 -47.5v222z" />
    <glyph glyph-name="glyph222" horiz-adv-x="952" 
d="M345 1459l-181 287h246l67 -113l60 113h251l-177 -287h-266z" />
    <glyph glyph-name="glyph224" horiz-adv-x="1240" 
d="M920 1746v-287h-266v287h266zM586 1746v-287h-266v287h266z" />
    <glyph glyph-name="glyph225" horiz-adv-x="1240" 
d="M887 1748l-160 -287h-265l108 287h317z" />
    <glyph glyph-name="glyph226" horiz-adv-x="1240" 
d="M353 1748h317l108 -287h-265z" />
    <glyph glyph-name="glyph227" horiz-adv-x="1240" 
d="M751 1746l181 -287h-245l-68 113l-60 -113h-251l177 287h266z" />
    <glyph glyph-name="glyph228" horiz-adv-x="1167" 
d="M851 1748l-161 -287h-264l108 287h317z" />
    <glyph glyph-name="glyph230" horiz-adv-x="1167" 
d="M883 1746v-287h-266v287h266zM550 1746v-287h-266v287h266z" />
  </font>
</defs>
</svg>
